<?xml version="1.0" encoding="utf-8"?>
<!-- Generator: Adobe Illustrator 15.0.2, SVG Export Plug-In . SVG Version: 6.00 Build 0)  -->
<!DOCTYPE svg PUBLIC "-//W3C//DTD SVG 1.1//EN" "http://www.w3.org/Graphics/SVG/1.1/DTD/svg11.dtd">
<svg version="1.1" width="750px" height="450px"
	 id="svg4862" inkscape:version="0.47 r22583" sodipodi:docname="Map_of_USA_States_with_names_white.svg" xmlns:dc="http://purl.org/dc/elements/1.1/" xmlns:cc="http://creativecommons.org/ns#" xmlns:rdf="http://www.w3.org/1999/02/22-rdf-syntax-ns#" xmlns:svg="http://www.w3.org/2000/svg" xmlns:sodipodi="http://sodipodi.sourceforge.net/DTD/sodipodi-0.dtd" xmlns:inkscape="http://www.inkscape.org/namespaces/inkscape"
	 xmlns="http://www.w3.org/2000/svg" xmlns:xlink="http://www.w3.org/1999/xlink" x="0px" y="0px"  viewBox="0 0 981.085 588.633" enable-background="new 0 0 981.085 588.633" xml:space="preserve">
<sodipodi:namedview  id="namedview548" inkscape:current-layer="svg4862" inkscape:window-y="-8" inkscape:window-x="-8" inkscape:window-height="838" inkscape:window-width="1600" inkscape:pageshadow="2" inkscape:pageopacity="0" inkscape:window-maximized="1" pagecolor="#ffffff" bordercolor="#666666" showgrid="false" inkscape:cy="419.52178" guidetolerance="10" gridtolerance="10" inkscape:cx="681.60289" objecttolerance="10" inkscape:zoom="1.9138072" borderopacity="1">
	</sodipodi:namedview>
<defs>
	
	
		<inkscape:perspective  id="perspective552" inkscape:persp3d-origin="490.5426 : 196.2112 : 1" inkscape:vp_z="981.08521 : 294.3168 : 1" inkscape:vp_y="0 : 1000 : 0" inkscape:vp_x="0 : 294.3168 : 1" sodipodi:type="inkscape:persp3d">
		</inkscape:perspective>
</defs>
<path id="Hawaii" fill="#D3D3D3" d="M234.087,512.948l1.94-3.559l2.264-0.32l0.323,0.807l-2.104,3.072H234.087z M244.272,509.229
	l6.143,2.59l2.102-0.324l1.617-3.879l-0.646-3.396l-4.203-0.482l-4.042,1.777L244.272,509.229z M274.988,519.252l3.718,5.496
	l2.425-0.322l1.132-0.486l1.455,1.295l3.718-0.16l0.97-1.455l-2.91-1.779l-1.94-3.717l-2.102-3.559l-5.819,2.91L274.988,519.252z
	 M295.195,528.143l1.293-1.938l4.688,0.971l0.646-0.482l6.144,0.646l-0.323,1.293l-2.587,1.455l-4.365-0.323L295.195,528.143z
	 M300.53,533.317l1.938,3.881l3.072-1.134l0.323-1.616l-1.617-2.104l-3.718-0.321L300.53,533.317L300.53,533.317z M307.481,532.186
	l2.264-2.908l4.688,2.424l4.365,1.133l4.365,2.748v1.938l-3.557,1.779l-4.85,0.969l-2.425-1.455L307.481,532.186z M324.133,547.706
	l1.617-1.293l3.395,1.615l7.598,3.557l3.395,2.103l1.617,2.427l1.94,4.364l4.042,2.586l-0.323,1.294l-3.88,3.23l-4.203,1.455
	l-1.455-0.646l-3.071,1.777l-2.425,3.232l-2.263,2.91l-1.778-0.162l-3.557-2.586l-0.323-4.527l0.646-2.424l-1.616-5.658
	l-2.104-1.779l-0.162-2.586l2.265-0.971l2.102-3.07l0.485-0.971l-1.617-1.777L324.133,547.706z"/>
<path id="Alaska" fill="#D3D3D3" d="M159.077,447.313l-0.323,85.357l1.617,0.971l3.071,0.16l1.455-1.131h2.587l0.161,2.91
	l6.952,6.789l0.485,2.588l3.395-1.941l0.647-0.16l0.323-3.07l1.455-1.617l1.132-0.16l1.94-1.455l3.071,2.104l0.646,2.908l1.94,1.133
	l1.131,2.424l3.88,1.779l3.395,5.979l2.748,3.881l2.264,2.748l1.455,3.719l5.011,1.777l5.174,2.104l0.97,4.363l0.485,3.072
	l-0.97,3.396l-1.778,2.264l-1.616-0.811l-1.455-3.07l-2.748-1.455l-1.778-1.131l-0.809,0.809l1.455,2.748l0.162,3.717l-1.132,0.486
	l-1.94-1.941l-2.102-1.293l0.485,1.617l1.293,1.777l-0.808,0.809c0,0-0.81-0.322-1.293-0.969c-0.485-0.646-2.104-3.396-2.104-3.396
	l-0.97-2.264c0,0-0.323,1.293-0.97,0.969c-0.647-0.32-1.293-1.455-1.293-1.455l1.778-1.938l-1.455-1.455v-5.012h-0.808l-0.809,3.396
	l-1.132,0.483l-0.97-3.719l-0.646-3.72l-0.809-0.483l0.323,5.658v1.131l-1.455-1.293l-3.557-5.979l-2.102-0.486l-0.647-3.717
	l-1.616-2.91l-1.617-1.133v-2.262l2.102-1.294l-0.485-0.323l-2.587,0.646l-3.396-2.424l-2.587-2.91l-4.85-2.588l-4.042-2.586
	l1.293-3.231v-1.616l-1.778,1.616l-2.91,1.132l-3.718-1.132l-5.658-2.427h-5.497l-0.646,0.484l-6.466-3.879l-2.102-0.324
	l-2.749-5.817l-3.557,0.321l-3.556,1.455l0.485,4.527l1.132-2.91l0.97,0.322l-1.455,4.365l3.232-2.748l0.646,1.615l-3.88,4.365
	l-1.293-0.324l-0.485-1.938l-1.293-0.81l-1.293,1.132l-2.749-1.777l-3.072,2.103l-1.778,2.103l-3.395,2.102l-4.688-0.161
	l-0.485-2.103l3.718-0.646v-1.293l-2.263-0.646l0.97-2.426l2.263-3.88v-1.778l0.162-0.81l4.365-2.263l0.97,1.294h2.748l-1.293-2.589
	l-3.718-0.321l-5.012,2.748l-2.425,3.396l-1.778,2.588l-1.131,2.263l-4.203,1.454l-3.072,2.589l-0.323,1.614l2.265,0.972
	l0.808,2.102l-2.748,3.232l-6.466,4.203l-7.76,4.202l-2.104,1.134l-5.335,1.131l-5.334,2.264l1.778,1.293l-1.455,1.455l-0.485,1.132
	l-2.748-0.97l-3.231,0.162l-0.81,2.262h-0.97l0.323-2.424l-3.556,1.293l-2.91,0.972l-3.396-1.295l-2.91,1.94h-3.231l-2.104,1.293
	l-1.617,0.81l-2.102-0.323l-2.586-1.132l-2.263,0.646l-0.97,0.972l-1.617-1.134v-1.938l3.072-1.293l6.305,0.646l4.364-1.617
	l2.104-2.102l2.91-0.646l1.778-0.81l2.748,0.162l1.617,1.293l0.97-0.322l2.264-2.75l3.071-0.969l3.396-0.646l1.293-0.323
	l0.647,0.484h0.808l1.294-3.719l4.041-1.455l1.94-3.719l2.263-4.525l1.617-1.455l0.323-2.588l-1.617,1.293l-3.395,0.648
	l-0.646-2.427l-1.293-0.323l-0.97,0.971l-0.161,2.91l-1.455-0.162l-1.455-5.819l-1.293,1.295l-1.132-0.485l-0.323-1.938
	l-4.042,0.161l-2.102,1.132l-2.586-0.322l1.455-1.454l0.485-2.589l-0.646-1.938l1.455-0.969l1.293-0.162l-0.646-1.779v-4.365
	l-0.97-0.969l-0.809,1.455h-6.145l-1.455-1.293l-0.647-3.881l-2.102-3.558v-0.97l2.102-0.809l0.162-2.104l1.132-1.133l-0.809-0.483
	l-1.293,0.483l-1.132-2.748l0.971-5.012l4.525-3.232l2.587-1.616l1.94-3.72l2.748-1.293l2.586,1.134l0.323,2.425l2.425-0.322
	l3.233-2.426l1.617,0.646l0.97,0.646h1.616l2.266-1.293l0.809-4.364c0,0,0.323-2.91,0.97-3.396c0.647-0.484,0.972-0.97,0.972-0.97
	L81.315,479l-2.586,0.809l-3.233,0.811l-1.94-0.484l-3.557-1.779l-5.011-0.16l-3.558-3.719l0.485-3.881l0.646-2.424l-2.102-1.779
	l-1.94-3.719l0.485-0.808l6.79-0.485H67.9l0.97,0.971h0.646l-0.162-1.616l3.88-0.646l2.587,0.324l1.455,1.131l-1.455,2.103
	l-0.485,1.454l2.749,1.617l5.011,1.777l1.778-0.97l-2.263-4.364l-0.97-3.234l0.97-0.807l-3.396-1.941l-0.484-1.131l0.484-1.617
	l-0.808-3.879l-2.91-4.688l-2.425-4.202l2.91-1.939h3.233l1.778,0.646l4.203-0.161l3.719-3.559l1.131-3.068l3.718-2.427l1.617,0.972
	l2.749-0.646l3.718-2.102l1.132-0.162l0.97,0.809l4.526-0.16l2.749-3.072h1.131l3.557,2.426l1.94,2.102l-0.485,1.132l0.646,1.134
	l1.617-1.617l3.88,0.324l0.324,3.717l1.939,1.455l7.113,0.646l6.305,4.202l1.455-0.969l5.173,2.586l2.102-0.646l1.94-0.81
	l4.85,1.939L159.077,447.313L159.077,447.313z M43.974,476.25l2.102,5.336l-0.161,0.969l-2.91-0.32l-1.778-4.045l-1.778-1.453
	h-2.425l-0.162-2.586l1.776-2.426l1.131,2.426l1.455,1.453L43.974,476.25z M41.387,509.715l3.718,0.807l3.718,0.973l0.808,0.971
	l-1.616,3.717l-3.07-0.158l-3.396-3.559L41.387,509.715z M20.694,495.651l1.132,2.586l1.132,1.616l-1.132,0.808l-2.102-3.07v-1.938
	L20.694,495.651L20.694,495.651z M6.953,568.721l3.396-2.264l3.395-0.971l2.587,0.324l0.485,1.615l1.94,0.484l1.939-1.939
	l-0.323-1.615l2.749-0.646l2.91,2.586l-1.131,1.779l-4.365,1.131l-2.748-0.484l-3.719-1.133l-4.365,1.455l-1.617,0.324
	L6.953,568.721z M55.937,564.194l1.617,1.939l2.104-1.617l-1.455-1.293L55.937,564.194z M58.847,567.266l1.132-2.264l2.102,0.324
	l-0.809,1.938L58.847,567.266L58.847,567.266z M82.449,565.327l1.455,1.776l0.97-1.132l-0.808-1.938L82.449,565.327z
	 M91.179,552.877l1.132,5.82l2.91,0.809l5.011-2.91l4.365-2.586l-1.616-2.426l0.485-2.424l-2.102,1.293l-2.909-0.809l1.616-1.133
	l1.938,0.809l3.88-1.777l0.485-1.455l-2.425-0.809l0.809-1.939l-2.749,1.939l-4.688,3.557l-4.852,2.91L91.179,552.877z
	 M133.534,532.995l2.425-1.455l-0.97-1.779l-1.778,0.972L133.534,532.995z"/>
<path id="Florida" fill="#D3D3D3" d="M756.398,439.145l2.266,7.318l3.729,9.742l5.336,9.377l3.721,6.305l4.85,5.496l4.043,3.719
	l1.615,2.91l-1.131,1.293l-0.813,1.293l2.91,7.438l2.91,2.91l2.586,5.336l3.557,5.816l4.527,8.246l1.293,7.6l0.484,11.963
	l0.646,1.775l-0.322,3.396l-2.426,1.293l0.324,1.939l-0.646,1.938l0.322,2.426l0.484,1.939l-2.748,3.23l-3.07,1.455l-3.881,0.162
	l-1.455,1.617l-2.424,0.969l-1.293-0.482l-1.133-0.971l-0.322-2.908l-0.813-3.396l-3.395-5.172l-3.557-2.264l-3.881-0.322
	l-0.809,1.293l-3.07-4.365l-0.646-3.557l-2.588-4.041l-1.777-1.133l-1.617,2.102l-1.773-0.322l-2.105-5.012l-2.91-3.881l-2.91-5.334
	l-2.586-3.072l-3.557-3.717l2.102-2.426l3.232-5.496l-0.162-1.617l-4.521-0.969l-1.617,0.646l0.322,0.646l2.588,0.969l-1.455,4.527
	l-0.813,0.482l-1.773-4.041l-1.297-4.85l-0.32-2.748l1.455-4.688v-9.536l-3.072-3.721l-1.293-3.068l-5.174-1.293l-1.939-0.648
	l-1.617-2.586l-3.395-1.617l-1.131-3.395l-2.748-0.97l-2.428-3.72l-4.201-1.455l-2.91-1.455h-2.586l-4.041,0.811l-0.162,1.938
	l0.809,0.973l-0.484,1.131l-3.072-0.162l-3.719,3.557l-3.557,1.941h-3.879l-3.234,1.293l-0.322-2.748l-1.617-1.941l-2.91-1.131
	l-1.613-1.455l-8.084-3.879l-7.6-1.778l-4.365,0.646l-5.979,0.484l-5.982,2.104l-3.479,0.611l-0.238-8.049l-2.586-1.939
	l-1.779-1.779l0.324-3.068l10.186-1.295l25.543-2.908l6.789-0.648l5.438,0.281l2.586,3.879l1.455,1.455l8.098,0.517l10.82-0.646
	l21.512-1.293l5.445-0.674l4.578,0.025l0.162,2.91l3.824,0.809l0.32-4.809l-1.615-4.523l0.955-0.732l5.111,0.455L756.398,439.145z
	 M768.943,571.549l2.424-0.646l1.295-0.242l1.453-2.344l2.346-1.617l1.293,0.485l1.697,0.321l0.404,1.052l-3.477,1.213l-4.203,1.455
	l-2.344,1.213L768.943,571.549z M782.441,566.54l1.213,1.051l2.748-2.102l5.334-4.203l3.719-3.881l2.506-6.629l0.971-1.697
	l0.162-3.396l-0.729,0.484l-0.971,2.83l-1.453,4.606l-3.234,5.255l-4.365,4.202l-3.395,1.938L782.441,566.54z"/>
<path id="SouthCarolina" fill="#D3D3D3" d="M762.23,406.577l-1.775,0.969l-2.588-1.293l-0.646-2.102l-1.293-3.559l-2.264-2.102
	l-2.586-0.646l-1.617-4.85l-2.748-5.982l-4.203-1.938l-2.102-1.939l-1.293-2.588l-2.102-1.938l-2.264-1.293l-2.268-2.91
	l-3.066-2.266l-4.527-1.775l-0.484-1.455l-2.426-2.91l-0.484-1.455l-3.395-5.172l-3.395,0.16l-4.043-2.424l-1.293-1.293
	l-0.322-1.779l0.809-1.939l2.262-0.971l-0.322-2.102l6.143-2.586l9.053-4.527l7.275-0.808l16.488-0.485l2.264,1.938l1.617,3.234
	l4.365-0.484l12.609-1.454l2.91,0.81l12.609,7.598l10.104,8.121l-5.422,5.459l-2.586,6.145l-0.484,6.305l-1.613,0.809l-1.131,2.748
	l-2.43,0.646l-2.102,3.557l-2.748,2.748l-2.264,3.396L774.839,393l-3.557,3.395l-2.91,0.162l0.969,3.232l-5.01,5.498L762.23,406.577
	z"/>
<path id="Georgia" fill="#D3D3D3" d="M690.617,351.612l-4.85,0.807l-8.406,1.133l-8.568,0.891v2.182l0.162,2.104l0.646,3.396
	l3.395,7.92l2.424,9.861l1.455,6.145l1.617,4.852l1.455,6.95l2.102,6.306l2.586,3.395l0.486,3.396l1.939,0.809l0.162,2.104
	l-1.779,4.85l-0.484,3.234l-0.162,1.938l1.617,4.365l0.322,5.334l-0.807,2.426l0.646,0.811l1.455,0.807l0.645,3.396l2.586,3.88
	l1.455,1.454l7.922,0.162l10.818-0.646l21.514-1.295l5.445-0.675l4.578,0.026l0.16,2.91l2.588,0.81l0.322-4.364l-1.617-4.525
	l1.133-1.617l5.82,0.81l4.977,0.317l-0.775-6.299l2.266-10.022l1.455-4.203l-0.486-2.586l3.336-6.245l-0.512-1.354l-1.912,0.705
	l-2.588-1.293l-0.646-2.102l-1.293-3.559l-2.264-2.102l-2.586-0.646l-1.617-4.851l-2.924-6.336l-4.203-1.938l-2.104-1.938
	l-1.295-2.588l-2.102-1.939l-2.262-1.293l-2.266-2.91l-3.07-2.264l-4.525-1.777l-0.486-1.454l-2.424-2.91l-0.484-1.455l-3.395-4.907
	l-3.396,0.162l-4.129-3.043l-1.293-1.293l-0.322-1.779l0.809-1.938l2.352-1.235l-1.135-1.222l0.078-0.29l-5.82,0.969l-6.949,0.809
	L690.617,351.612z"/>
<path id="Alabama" fill="#D3D3D3" d="M626.597,460.409l-1.615-15.195l-2.748-18.754l0.162-14.063l0.809-31.038l-0.162-16.65
	l0.164-6.42l7.758-0.369l27.805-2.588l8.922-0.662l-0.145,2.185l0.162,2.103l0.645,3.395l3.396,7.923l2.424,9.86l1.455,6.145
	l1.617,4.85l1.455,6.951l2.102,6.305l2.586,3.396l0.486,3.396l1.938,0.811l0.162,2.102l-1.775,4.851l-0.484,3.233l-0.162,1.939
	l1.617,4.363l0.322,5.334l-0.813,2.428l0.646,0.809l1.455,0.81l1.035,2.534h-6.305l-6.789,0.646l-25.543,2.91l-10.41,1.404
	l-0.098,3.752l1.779,1.779l2.586,1.938l0.582,7.937l-5.543,2.572l-2.748-0.322l2.748-1.94v-0.97l-3.072-5.98l-2.262-0.646
	l-1.455,4.365l-1.295,2.748l-0.646-0.162h-2.748V460.409z"/>
<path id="NorthCarolina" fill="#D3D3D3" d="M833.107,292.11l1.709,4.699l3.557,6.467l2.426,2.426l0.646,2.264l-2.426,0.162
	l0.809,0.646l-0.322,4.202l-2.588,1.294l-0.646,2.103l-1.293,2.91l-3.719,1.616l-2.424-0.323l-1.455-0.162l-1.617-1.293l0.324,1.293
	v0.971h1.939l0.809,1.293l-1.941,6.307h4.205l0.646,1.615l2.262-2.264l1.295-0.484l-1.938,3.559l-3.07,4.85H829l-1.133-0.485
	l-2.748,0.646l-5.176,2.426l-6.465,5.334l-3.395,4.689l-1.939,6.467l-0.484,2.424l-4.689,0.484l-5.453,1.338l-9.945-8.203
	l-12.605-7.598l-2.91-0.811l-12.609,1.455l-4.277,0.75l-1.615-3.23l-2.971-2.117l-16.49,0.483l-7.273,0.81l-9.055,4.527
	l-6.143,2.586l-1.621,0.319l-5.818,0.972l-6.951,0.81l-6.791,0.483l0.5-4.056l1.779-1.453l2.748-0.646l0.646-3.717l4.203-2.748
	l3.879-1.455l4.203-3.559l4.365-2.102l0.646-3.072l3.881-3.879l0.645-0.162c0,0,0,1.131,0.811,1.131
	c0.809,0,1.938,0.324,1.938,0.324l2.268-3.557l2.102-0.646l2.264,0.322l1.615-3.557l2.91-2.586l0.486-2.104v-3.961l4.521,0.729
	l7.139-1.295l15.816-1.939l17.137-2.586l19.926-4.001l19.73-4.165l11.363-2.796L833.107,292.11z M837.001,325.098l2.588-2.506
	l3.152-2.586l1.531-0.646l0.162-2.021l-0.645-6.143l-1.455-2.348l-0.646-1.855l0.729-0.244l2.748,5.498l0.402,4.445l-0.16,3.395
	l-3.396,1.535l-2.828,2.426l-1.133,1.213L837.001,325.098z"/>
<path id="Tennessee" fill="#D3D3D3" d="M698.052,314.268l-51.893,5.014l-15.764,1.775l-4.619,0.516l-3.867-0.029v3.881l-8.406,0.484
	l-6.951,0.646l-11.096,0.055l-0.268,5.836l-2.139,6.273l-0.996,3.018l-1.348,4.381l-0.324,2.588l-4.041,2.264l1.455,3.557
	l-0.971,4.363l-0.969,0.791l7.258-0.193l24.086-1.939l5.336-0.162l8.082-0.483l27.807-2.588l10.17-0.808l8.42-0.971l8.406-1.131
	l4.852-0.811l-0.131-4.51l1.777-1.455l2.748-0.646l0.646-3.721l4.203-2.748l3.881-1.453l4.203-3.559l4.365-2.102l0.873-3.525
	l4.334-3.879l0.645-0.162c0,0,0,1.131,0.811,1.131c0.809,0,1.938,0.324,1.938,0.324l2.268-3.557l2.102-0.646l2.264,0.322
	l1.615-3.559l2.115-2.246l0.6-0.967l0.176-3.932l-1.482-0.287l-2.426,1.939l-7.922,0.162l-11.994,1.898L698.052,314.268z"/>
<path id="RhodeIsland" fill="#D3D3D3" d="M875.07,173.462l-0.482-4.205l-0.809-4.365l-1.697-5.901l5.738-1.536l1.617,1.132
	l3.395,4.365l2.908,4.446l-2.91,1.536l-1.293-0.162l-1.133,1.778l-2.424,1.94L875.07,173.462z"/>
<path id="Connecticut" fill="#D3D3D3" d="M874.193,173.688l-0.627-4.204l-0.809-4.365l-1.617-5.981l-4.15,0.905l-21.824,4.769
	l0.646,3.314l1.455,7.275v8.083l-1.133,2.263l1.832,2.109l4.955-3.401l3.557-3.233l1.941-2.102l0.809,0.647l2.748-1.455l5.172-1.132
	L874.193,173.688z"/>
<path id="Massachusetts" fill="#D3D3D3" d="M900.976,167.489l2.172-0.688l0.459-1.715l1.027,0.114l1.029,2.286l-1.258,0.458
	l-3.891,0.114L900.976,167.489z M891.603,168.29l2.287-2.629h1.6l1.83,1.486l-2.402,1.029l-2.172,1.029L891.603,168.29z
	 M856.804,146.301l17.459-4.203l2.264-0.646l2.102-3.233l3.736-1.663l2.889,4.413l-2.424,5.173l-0.324,1.455l1.941,2.587
	l1.131-0.809h1.777l2.264,2.587l3.881,5.981l3.557,0.485l2.262-0.97l1.779-1.778l-0.809-2.749l-2.102-1.616l-1.455,0.808
	l-0.969-1.293l0.484-0.485l2.102-0.162l1.777,0.808l1.938,2.425l0.973,2.91l0.32,2.425l-4.203,1.455l-3.881,1.94l-3.879,4.526
	l-1.938,1.455v-0.97l2.424-1.455l0.482-1.778l-0.807-3.072l-2.91,1.455l-0.809,1.455l0.482,2.263l-2.064,1l-2.746-4.527
	l-3.396-4.365l-2.068-1.813l-6.533,1.876l-5.092,1.051l-21.824,4.77l-0.4-4.945l0.645-10.589l5.174-0.889L856.804,146.301z"/>
<path id="Maine" fill="#D3D3D3" d="M924.214,70.969l1.939,2.104l2.264,3.718v1.94l-2.105,4.688l-1.938,0.646l-3.396,3.071
	l-4.85,5.497c0,0-0.646,0-1.295,0c-0.646,0-0.969-2.102-0.969-2.102l-1.779,0.162l-0.969,1.455l-2.426,1.455l-0.969,1.455
	l1.615,1.455l-0.484,0.647l-0.484,2.748l-1.941-0.162v-1.617l-0.322-1.293l-1.455,0.324l-1.775-3.233l-2.105,1.293l1.295,1.455
	l0.322,1.132l-0.809,1.293l0.324,3.072l0.162,1.617l-1.617,2.586l-2.91,0.485l-0.322,2.91l-5.336,3.071l-1.293,0.485l-1.617-1.455
	l-3.07,3.557l0.973,3.233l-1.455,1.293l-0.16,4.365l-1.125,6.259l-2.461-1.156l-0.486-3.072l-3.879-1.131l-0.324-2.749
	l-7.273-23.438l-4.199-13.64l1.42-0.118l1.514,0.41v-2.586l0.813-5.497l2.588-4.688l1.453-4.042l-1.939-2.425v-5.981l0.809-0.97
	l0.809-2.748l-0.162-1.455l-0.162-4.85l1.779-4.85l2.91-8.891l2.102-4.204h1.293l1.293,0.162v1.132l1.293,2.263l2.748,0.647
	l0.813-0.811v-0.97l4.041-2.91l1.775-1.778l1.455,0.162l5.98,2.425l1.941,0.97l9.053,29.907h5.98l0.809,1.939l0.162,4.85l2.91,2.263
	h0.807l0.162-0.485l-0.484-1.131L924.214,70.969z M903.283,101.116l1.535-1.536l1.375,1.051l0.566,2.425l-1.697,0.889
	L903.283,101.116z M909.992,95.216l1.779,1.859c0,0,1.293,0.081,1.293-0.243s0.242-2.021,0.242-2.021l0.889-0.808l-0.809-1.778
	l-2.02,0.728L909.992,95.216z"/>
<path id="NewHampshire" fill="#D3D3D3" d="M881.798,136.063l0.869-1.077l1.09-3.291l-2.543-0.913l-0.484-3.072l-3.879-1.131
	l-0.324-2.749l-7.275-23.441l-4.602-14.543l-0.896-0.005l-0.646,1.616l-0.645-0.485l-0.971-0.97l-1.455,1.94l-0.051,5.032
	l0.314,5.667l1.939,2.748v4.042l-3.721,5.063l-2.588,1.132v1.131l1.133,1.778v8.568l-0.809,9.215l-0.162,4.85l0.971,1.293
	l-0.158,4.526l-0.484,1.778l1.455,0.886l16.389-4.69l2.264-0.646l1.533-2.552L881.798,136.063z"/>
<path id="Vermont" fill="#D3D3D3" d="M845.343,147.365l-0.809-5.658l-2.395-9.972l-0.645-0.323l-2.91-1.293l0.809-2.91l-0.809-2.102
	l-2.699-4.64l0.969-3.88l-0.807-5.173l-2.426-6.467l-0.805-4.922l26.244-6.748l0.324,5.819l1.941,2.748v4.042l-3.721,4.042
	l-2.586,1.132v1.131l1.131,1.778v8.568l-0.809,9.215l-0.162,4.85l0.971,1.293l-0.16,4.527l-0.484,1.778l0.66,1.567l-6.951,1.374
	L845.343,147.365z"/>
<path id="NewYork" fill="#D3D3D3" d="M829.615,183.061l-1.133-0.97l-2.586-0.162l-2.264-1.938l-1.631-6.129l-3.457,0.09
	l-2.445-2.708l-19.385,4.382l-43.002,8.73l-7.529,1.228l-0.738-6.469l1.428-1.125l1.293-1.132l0.971-1.617l1.777-1.131l1.941-1.778
	l0.484-1.617l2.102-2.748l1.131-0.97l-0.16-0.97l-1.293-3.072l-1.779-0.162l-1.939-6.143l2.91-1.778l4.363-1.455l4.043-1.293
	l3.232-0.485l6.305-0.162l1.939,1.293l1.617,0.162l2.102-1.293l2.586-1.132l5.174-0.485l2.102-1.778l1.779-3.233l1.615-1.94h2.102
	l1.939-1.132l0.162-2.263l-1.455-2.102l-0.322-1.455l1.131-2.102v-1.455h-1.773l-1.779-0.809l-0.813-1.131l-0.156-2.586l5.814-5.497
	l0.646-0.808l1.455-2.91l2.91-4.526l2.748-3.718l2.102-2.425l2.416-1.826l3.082-1.246l5.496-1.293l3.232,0.162l4.527-1.455
	l7.563-2.071l0.521,4.98l2.426,6.466l0.809,5.173l-0.971,3.879l2.586,4.527l0.809,2.102l-0.809,2.91l2.91,1.293l0.646,0.323
	l3.068,10.993l-0.535,5.06l-0.482,10.831l0.809,5.497l0.809,3.557l1.455,7.274v8.083l-1.133,2.263l1.84,1.993l0.797,1.678
	l-1.939,1.778l0.322,1.293l1.293-0.323l1.455-1.293l2.264-2.586l1.131-0.647l1.617,0.647l2.268,0.162l7.922-3.88l2.906-2.749
	l1.297-1.455l4.199,1.617l-3.395,3.556l-3.879,2.91l-7.113,5.334l-2.586,0.97l-5.82,1.94l-4.041,1.132l-1.176-0.533l-0.244-3.688
	l0.486-2.748l-0.162-2.104l-2.814-1.699l-4.523-0.97l-3.881-1.132L829.615,183.061z"/>
<path id="NewJersey" fill="#D3D3D3" d="M829.16,183.968l-2.102,2.425v3.071l-1.939,3.071l-0.162,1.617l1.293,1.293l-0.16,2.425
	l-2.264,1.132l0.809,2.748l0.16,1.132l2.75,0.323l0.969,2.586l3.561,2.425l2.426,1.616v0.809l-3.234,3.071l-1.615,2.264
	l-1.455,2.748l-2.264,1.293l-1.213,0.728l-0.242,1.213l-0.609,2.606l1.092,2.244l3.234,2.91l4.85,2.263l4.041,0.646l0.162,1.455
	l-0.809,0.97l0.322,2.749h0.809l2.102-2.425l0.809-4.85l2.748-4.042l3.072-6.466l1.131-5.497l-0.645-1.132l-0.162-9.376
	l-1.615-3.395l-1.133,0.808l-2.748,0.324l-0.484-0.485l1.131-0.97l2.104-1.94l0.063-1.094l-0.385-3.434l0.484-2.748l-0.162-2.102
	l-2.586-1.132l-4.527-0.97l-3.879-1.132L829.16,183.968z"/>
<path id="Pennsylvania" fill="#D3D3D3" d="M823.207,220.098l1.133-0.647l2.262-0.612l1.455-2.748l1.617-2.263l3.232-3.072v-0.808
	l-2.424-1.617l-3.557-2.425l-0.971-2.587l-2.748-0.323l-0.162-1.131l-0.807-2.749l2.262-1.131l0.162-2.425l-1.293-1.293l0.162-1.617
	l1.938-3.072v-3.071l2.344-2.425l0.217-1.083l-2.588-0.162l-2.264-1.94l-2.426-5.335l-3.004-0.931l-2.33-2.141l-18.592,4.042
	l-43.004,8.729l-8.891,1.455l-0.496-7.084l-5.484,5.63l-1.297,0.485l-4.199,3.009l2.908,19.138l2.482,9.729l3.572,19.262
	l3.268-0.638l11.945-1.502l37.926-7.666l14.877-2.823l8.299-1.623l0.27-0.238l2.102-1.617L823.207,220.098z"/>
<path id="Delaware" fill="#D3D3D3" d="M823.353,224.062l0.588-2.103l0.021-1.205l-1.271-0.088l-2.102,1.617l-1.455,1.455
	l1.455,4.204l2.264,5.658l2.104,9.7l1.617,6.305l5.012-0.162l6.143-1.212l-2.266-7.355l-0.969,0.485l-3.559-2.425l-1.777-4.688
	l-1.939-3.557l-2.264-0.97l-2.104-3.557L823.353,224.062z"/>
<path id="Maryland" fill="#D3D3D3" d="M837.953,248.943l-6.141,1.292l-5.807,0.162l-1.842-7.099l-2.105-9.7l-2.264-5.658
	l-1.289-4.398L811,225.164l-14.877,2.823l-37.451,7.551l1.133,5.011l0.973,5.658l0.32-0.323l2.105-2.425l2.262-2.618l2.426-0.616
	l1.455-1.455l1.777-2.586l1.295,0.646l2.908-0.323l2.588-2.102l2.006-1.454l1.846-0.485l1.645,1.13l2.91,1.455l1.939,1.778
	l1.213,1.536l4.123,1.697v2.91l5.496,1.293l1.145,0.542l1.412-2.028l2.881,1.97l-1.277,2.482l-0.766,3.986l-1.779,2.586v2.104
	l0.648,1.778l5.063,1.356l4.314-0.062l3.068,0.97l2.105,0.323l0.971-2.102l-1.455-2.102v-1.778l-2.426-2.102l-2.105-5.497
	l1.295-5.334l-0.16-2.102l-1.295-1.293c0,0,1.455-1.617,1.455-2.263c0-0.647,0.484-2.104,0.484-2.104l1.939-1.293l1.939-1.617
	l0.486,0.97l-1.455,1.617l-1.293,3.718l0.322,1.132l1.775,0.323l0.484,5.497l-2.102,0.97l0.322,3.557l0.486-0.162l1.131-1.94
	l1.617,1.778l-1.617,1.293l-0.322,3.395l2.586,3.395l3.879,0.485l1.617-0.808l3.236,4.183l1.359,0.537l6.648-2.797l2.008-4.024
	L837.953,248.943z M821.32,257.928l1.133,2.506l0.162,1.778l1.131,1.859c0,0,0.889-0.889,0.889-1.212
	c0-0.323-0.727-3.072-0.727-3.072l-0.729-2.344L821.32,257.928z"/>
<path id="WestVirginia" fill="#D3D3D3" d="M757.56,235.605l1.111,4.944l1.084,6.907l3.561-2.749l2.264-3.071l2.537-0.616
	l1.455-1.455l1.779-2.587l1.18,0.646l2.91-0.323l2.586-2.102l2.006-1.453l1.846-0.485l1.305,1.016l2.23,1.115l1.938,1.778
	l1.375,1.293l-0.143,4.671l-5.658-3.072l-4.527-1.778l-0.162,5.334l-0.48,2.102l-1.617,2.749l-0.646,1.616l-3.07,2.425l-0.486,2.264
	l-3.395,0.323l-0.322,3.071l-1.133,5.497H764.5l-1.293-0.808l-1.617-2.749l-1.777,0.162l-0.324,4.365l-2.102,6.628l-5.012,10.831
	l0.809,1.293l-0.162,2.748l-2.102,1.94l-1.455-0.323l-3.232,2.425l-2.586-0.97l-1.775,4.688c0,0-3.723,0.808-4.365,0.97
	c-0.646,0.162-2.424-1.293-2.424-1.293l-2.43,2.264l-2.586,0.646l-2.908-0.811l-1.295-1.293l-2.189-3.023l-3.146-1.988l-2.586-2.749
	l-2.908-3.718l-0.646-2.264l-2.586-1.455l-0.811-1.617l-0.24-5.254l2.182-0.081l1.939-0.808l0.16-2.749l1.617-1.455l0.162-5.012
	l0.969-3.88l1.295-0.646l1.295,1.131l0.482,1.778l1.777-0.97l0.484-1.617l-1.133-1.778V253.8l0.973-1.293l2.264-3.395l1.293-1.455
	l2.102,0.485l2.266-1.617l3.068-3.395l2.266-3.88l0.322-5.658l0.484-5.012v-4.688l-1.131-3.072l0.969-1.455l1.283-1.293
	l3.492,19.827l4.631-0.751L757.56,235.605z"/>
<path id="Kentucky" fill="#D3D3D3" d="M722.783,291.456l-2.324,2.683l-4.203,3.557l-4.301,5.901l-1.777,1.776v2.103l-3.879,2.103
	l-5.658,3.395l-3.52,0.387l-51.869,4.898l-15.76,1.777l-4.621,0.514l-3.867-0.028l-0.229,4.222l-8.178,0.145l-6.953,0.646
	l-10.43,0.207l1.912-0.224l2.182-1.763l2.057-1.143l0.229-3.201l0.914-1.83l-1.604-2.537l0.801-1.908l2.264-1.775l2.104-0.646
	l2.746,1.293l3.559,1.293l1.131-0.323l0.162-2.263l-1.293-2.426l0.324-2.264l1.938-1.454l2.586-0.647l1.617-0.646l-0.809-1.777
	l-0.646-1.939l1.131-0.809l1.051-3.313l2.99-1.698l5.82-0.97l3.557-0.485l1.455,1.94l1.779,0.808l1.775-3.233l2.91-1.455
	l1.939,1.616l0.809,1.132l2.104-0.485l-0.162-3.395l2.91-1.617l1.131-0.808l1.133,1.616h4.689l0.809-2.104l-0.322-2.263l2.908-3.557
	l4.689-3.88l0.482-4.526l2.748-0.324l3.881-1.778l2.748-1.94l-0.324-1.94l-1.453-1.455l0.564-2.183l4.123-0.242l2.424-0.809
	l2.91,1.617l1.617,4.365l5.816,0.323l1.779,1.778l2.104,0.162l2.424-1.455l3.07,0.484l1.295,1.455l2.746-2.586l1.779-1.293h1.617
	l0.645,2.749l1.777,0.97l2.422,2.215l0.162,5.496l0.809,1.617l2.588,1.455l0.645,2.263l2.91,3.718l2.586,2.749L722.783,291.456z"/>
<path id="Ohio" fill="#D3D3D3" d="M732.435,188.646l-6.094,4.053l-3.879,2.263l-3.396,3.718l-4.041,3.88l-3.232,0.809l-2.91,0.485
	l-5.496,2.586l-2.102,0.162l-3.396-3.072l-5.174,0.646l-2.586-1.455l-2.381-1.351l-4.893,0.704l-10.186,1.617l-7.76,1.212
	l1.293,14.63l1.775,13.741l2.586,23.44l0.566,4.832l4.123-0.129l2.424-0.808l3.363,1.503l2.072,4.365l5.139-0.017l1.891,2.119
	l1.766-0.065l2.539-1.341l2.504,0.372l1.973,1.455l1.729-2.132l2.346-1.293l2.07-0.681l0.646,2.748l1.777,0.97l3.477,2.344
	l2.182-0.081l1.146-1.149l-0.066-1.386l1.617-1.455l0.162-5.012l0.971-3.88l1.52-1.441l1.52,0.905l0.826,1.211l1.211-0.176
	l-0.424-2.411l-0.563-0.644v-2.425l0.971-1.293l2.264-3.395l1.293-1.455l2.104,0.485l2.264-1.616l3.07-3.396l2.264-3.88l0.211-5.431
	l0.484-5.012v-4.688l-1.131-3.071l0.969-1.455l0.922-0.955l-1.406-9.843L732.435,188.646z"/>
<path id="Michigan" fill="#D3D3D3" d="M582.619,75.697l1.83-2.058l2.172-0.8l5.373-3.886l2.285-0.572l0.457,0.457l-5.145,5.144
	l-3.314,1.943l-2.057,0.915L582.619,75.697z M668.794,107.825l0.645,2.506l3.232,0.162l1.293-1.212c0,0-0.08-1.455-0.404-1.617
	c-0.32-0.162-1.613-1.859-1.613-1.859l-2.186,0.242l-1.617,0.162l-0.32,1.131L668.794,107.825z M698.861,170.875l-3.234-8.245
	l-2.264-9.053l-2.424-3.233l-2.588-1.778l-1.615,1.132l-3.881,1.778l-1.939,5.012l-2.748,3.718l-1.131,0.646l-1.455-0.646
	c0,0-2.588-1.455-2.426-2.102s0.484-5.012,0.484-5.012l3.396-1.293l0.807-3.395l0.648-2.586l2.424-1.617l-0.322-10.023l-1.617-2.263
	l-1.293-0.809l-0.809-2.102l0.809-0.808l1.615,0.323l0.162-1.617l-2.424-2.263l-1.295-2.586h-2.586l-4.525-1.455l-5.498-3.395
	h-2.748l-0.646,0.646l-0.969-0.485l-3.072-2.263l-2.91,1.778l-2.91,2.263l0.324,3.557l0.969,0.323l2.102,0.485l0.486,0.808
	l-2.588,0.808l-2.586,0.323l-1.455,1.778l-0.322,2.102l0.322,1.617l0.324,5.497l-3.557,2.102l-0.646-0.162v-4.203l1.293-2.425
	l0.646-2.425l-0.809-0.808l-1.939,0.808l-0.971,4.203l-2.748,1.132l-1.777,1.94l-0.162,0.97l0.646,0.808l-0.646,2.586l-2.264,0.485
	v1.131l0.809,2.425l-1.133,6.143l-1.615,4.042l0.646,4.688l0.484,1.131l-0.813,2.425l-0.318,0.809l-0.324,2.748l3.557,5.981
	l2.91,6.467l1.455,4.85l-0.809,4.688l-0.973,5.981l-2.426,5.173l-0.324,2.748l-3.258,3.085l4.408-0.162l21.418-2.263l7.279-0.987
	l0.096,1.667l6.855-1.212l10.299-1.503l3.854-0.461l0.139-0.587l0.162-1.455l2.102-3.718l2-1.738l-0.223-5.052l1.598-1.597
	l1.09-0.343l0.223-3.557l1.535-3.031l1.053,0.606l0.16,0.646l0.813,0.162l1.938-0.97L698.861,170.875z M568.492,104.852l0.717-0.581
	l2.748-0.808l3.557-2.264v-0.97l0.646-0.646l5.982-0.97l2.424-1.94l4.365-2.102l0.162-1.293l1.939-2.91l1.773-0.808l1.295-1.778
	l2.266-2.263l4.361-2.425l4.689-0.485l1.133,1.132l-0.324,0.97l-3.717,0.97l-1.455,3.071l-2.264,0.809l-0.484,2.425l-2.426,3.233
	l-0.324,2.587l0.811,0.485l0.971-1.131l3.557-2.91l1.293,1.293h2.266l3.23,0.97l1.455,1.132l1.455,3.071l2.748,2.749l3.881-0.162
	l1.455-0.97l1.615,1.293l1.617,0.485l1.293-0.809h1.133l1.615-0.97l4.041-3.557l3.395-1.131l6.627-0.324l4.527-1.939l2.586-1.293
	l1.455,0.162v5.658l0.484,0.323l2.908,0.809l1.939-0.485l6.145-1.616l1.133-1.132l1.453,0.485v6.952l3.232,3.071l1.295,0.646
	l1.293,0.97l-1.293,0.323l-0.809-0.323l-3.721-0.485l-2.102,0.646l-2.264-0.162l-3.232,1.455h-1.779l-5.816-1.293l-5.174,0.162
	l-1.939,2.586l-6.951,0.646l-2.426,0.809l-1.131,3.071l-1.293,1.132l-0.486-0.162l-1.455-1.617l-4.523,2.425h-0.646l-1.133-1.616
	l-0.811,0.162l-1.938,4.365l-0.969,4.042l-3.186,7l-1.178-1.034l-1.371-1.031l-1.938-10.288l-3.549-1.37l-2.051-2.286l-12.121-2.743
	l-2.854-1.03l-8.23-2.173l-7.891-1.143L568.492,104.852z"/>
<path id="Wyoming" fill="#D3D3D3" d="M355.252,137.414l-10.549-0.807l-32.088-3.295l-16.232-2.058l-28.349-4.115l-19.89-2.972
	l-1.419,11.176l-3.839,24.261l-5.259,30.406l-1.531,10.517l-1.669,11.889l6.523,0.928l25.88,2.5l20.569,2.307l36.784,4.115
	l23.821,2.86l4.504-44.192l1.44-25.377L355.252,137.414z"/>
<path id="Montana" fill="#D3D3D3" d="M357.671,115.912l0.647-11.15l2.259-24.787c0.457-5.03,1.083-8.472,1.372-15.41l0.938-14.552
	l-30.675-2.808l-29.26-3.557l-29.26-4.042l-32.333-5.335l-18.43-3.395l-32.724-6.933l-4.479,21.348l3.429,7.544l-1.372,4.573
	l1.829,4.572l3.201,1.372l4.621,10.77l2.695,3.176l0.457,1.144l3.429,1.143l0.458,2.058l-7.087,17.604v2.515l2.517,3.201h0.915
	l4.801-2.972l0.686-1.143l1.603,0.686l-0.229,5.258l2.743,12.574l2.973,2.515l0.914,0.686l1.829,2.286l-0.457,3.43l0.688,3.429
	l1.144,0.915l2.286-2.286h2.743l3.201,1.6l2.515-0.915h4.115l3.658,1.601l2.744-0.458l0.457-2.972l2.972-0.688l1.372,1.372
	l0.458,3.201l1.779,1.365l1.534-11.565l20.692,2.972l28.188,3.955l16.554,1.897l31.446,3.456l10.99,1.524l1.052-15.427
	L357.671,115.912z"/>
<path id="Idaho" fill="#D3D3D3" d="M163.119,174.598c-22.61-4.343-14.147-2.847-21.141-4.351l4.427-17.502l4.344-17.718l1.371-4.229
	l2.515-5.944l-1.257-2.286l-2.515,0.114l-0.801-1.029l0.458-1.143l0.343-3.086l4.458-5.487l1.829-0.457l1.143-1.144l0.572-3.2
	l0.915-0.686l3.887-5.83l3.887-4.344l0.229-3.772l-3.43-2.629l-1.314-4.401l0.4-9.659l3.658-16.461l4.458-20.805l3.772-13.489
	l0.762-3.803l12.996,2.528l-4.158,21.508l2.948,7.705l-1.051,4.572l1.99,4.572l3.2,1.693l4.46,9.807l2.695,3.818l0.618,1.143
	l3.429,1.144l0.458,2.539l-6.927,16.802l0.321,3.317l2.675,2.879l1.877,0.481l4.802-3.614l0.364-0.501l0.156,0.847l0.253,4.135
	l2.583,12.896l3.454,2.675l0.433,0.847l2.15,2.447l-0.778,2.788l0.686,3.75l1.945,0.915l2.126-1.644l2.583-0.481l3.361,1.6
	l2.515-0.594l3.794-0.16l3.979,1.6l2.744-0.297l0.938-2.33l2.491-1.648l0.729,1.692l0.618,2.238l2.308,2.539l-3.772,23.981
	l-5.144,29.009l-4.159-0.319l-8.187-1.532l-9.807-1.829l-12.163-2.378l-12.528-2.504l-8.481-1.84l-9.259-1.668L163.119,174.598z"/>
<path id="Washington1" fill="#D3D3D3" d="M146.764,80.381c-8.375-2.265-13.497-3.027-19.234-2.862
	c-4.302,0.124-8.134-0.089-8.52-0.472c-0.383-0.383-2.131-0.196-3.885,0.415c-1.781,0.621-4.499,0.737-6.158,0.262
	c-1.634-0.467-3.979-0.97-5.211-1.119c-1.231-0.148-5.146-1.224-8.697-2.39c-3.903-1.281-8.073-1.911-10.542-1.592
	c-5.828,0.753-9.312-1.725-8.661-6.16c0.609-4.15-1.618-9.859-3.846-9.859c-0.908,0-2.221-0.78-2.917-1.732
	c-0.697-0.953-2.708-1.803-4.469-1.889c-1.761-0.086-3.561-0.651-4-1.257c-1.304-1.797-0.943-3.818,0.682-3.818
	c2.085,0,3.141-3.215,1.646-5.017c-1.594-1.921-0.479-4.768,1.868-4.768c1.646,0,1.622-0.234-0.233-2.284
	c-1.677-1.853-2.023-3.728-1.836-9.925c0.127-4.202-0.26-8.558-0.86-9.679C60.721,14.053,62.397,5.51,63.994,5.51
	c0.471,0,2.042,1.271,3.492,2.821c3.109,3.33,6.065,4.962,14.096,7.782c6.32,2.22,8.651,2.121,8.651-0.365
	c0-0.848,0.856-1.502,1.903-1.455c1.136,0.051,1.355,0.307,0.543,0.634c-0.747,0.302-1.357,1.259-1.357,2.126
	c0,1.769,3.131,6.938,4.202,6.938c1.247,0,0.546-16.793-0.807-19.319c-2.115-3.951-0.611-4.484,6.649-2.359
	c12.3,3.601,47.873,12.888,60.62,15.827c6.876,1.586,12.633,2.989,12.794,3.119c0.161,0.13-0.694,3.366-1.899,7.192
	c-3.025,9.604-10.895,46.796-10.895,51.491C161.984,84.57,162.228,84.563,146.764,80.381L146.764,80.381z"/>
<path id="Washington2" fill="#D3D3D3" d="M94.573,0l4.365,1.455l9.7,2.748l8.568,1.94l20.046,5.658l22.956,5.658l15.161,3.395
	l-1.004,3.884l-4.093,13.81l-4.458,20.805l-3.177,16.14l-0.352,9.379l-13.181-3.894l-15.571-3.383l-13.667,0.596l-1.581-1.532
	l-5.326,1.897l-3.977-0.251l-2.722-1.761l-1.579,0.525l-4.206-0.229L98.6,75.468l-4.776-1.736l-1.442-0.207l-4.986-1.326
	l-1.783,1.508l-5.691-0.343l-4.821-3.794l0.205-0.8l0.068-7.934l-2.125-3.886l-4.115-0.732l-0.365-2.354l-2.514-0.627l-2.881-0.535
	l-1.778,0.97l-2.264-2.91l0.323-2.91l2.749-0.323l1.617-4.042l-2.587-1.131l0.162-3.718l4.364-0.646l-2.748-2.748l-1.455-7.113
	l0.647-2.91V17.3l-1.778-3.233l2.263-9.376l2.104,0.484l2.425,2.91l2.749,2.587l3.233,1.939l4.526,2.102l3.072,0.646l2.91,1.455
	l3.396,0.97l2.263-0.162v-2.425l1.293-1.132l2.102-1.293l0.324,1.131l0.323,1.776l-2.264,0.485l-0.323,2.102l1.778,1.455
	l1.132,2.425l0.646,1.94l1.455-0.162l0.162-1.293l-0.972-1.294l-0.483-3.233l0.808-1.778L94.9,14.873v-2.264l1.778-3.557
	l-1.132-2.586l-2.425-4.85l0.323-0.808L94.573,0z M85.116,5.979l2.021-0.162l0.485,1.374l1.536-1.617h2.344l0.809,1.536
	l-1.536,1.698l0.647,0.808l-0.728,2.021l-1.374,0.404c0,0-0.891,0.081-0.891-0.242c0-0.323,1.455-2.587,1.455-2.587l-1.698-0.565
	l-0.323,1.455l-0.729,0.646l-1.536-2.264L85.116,5.979z"/>
<path id="Texas" fill="#D3D3D3" d="M358.053,327.012l22.691,1.086l31.093,1.145l-2.335,23.457l-0.297,18.15l0.068,2.082l4.344,3.818
	l1.736,0.822l1.81,0.254l0.687-1.256l0.892,0.863l1.735,0.482l1.604-0.729l1.139,0.406L422.923,381l4.275,1.031l2.676,0.82
	l3.954,0.525l2.193,1.828l3.25-1.576l2.787,0.365l2.031,2.787l1.076,0.322l-0.161,1.965l3.089,1.166l2.77-1.807l1.508,0.365
	l2.354,0.16l0.435,1.873l4.641,1.988l2.656-0.203l1.989-4.115h0.341l1.143,1.896l4.438,1.008l3.337,1.211l3.293,0.754l2.149-0.754
	l0.847-2.516h3.702l1.896,0.754l3.064-1.574h0.659l0.365,1.117h4.277l2.4-1.256l1.67,0.297l1.414,1.873l2.883,1.668l3.52,1.074
	l2.742,1.418l2.447,1.623l3.293-0.891l1.941,0.98l0.512,10.143l0.334,9.701l0.686,9.533l0.525,4.048l2.676,4.597l1.076,4.066
	l3.861,6.289l0.551,2.88l0.525,1.009l-0.688,7.496l-2.65,4.387l0.959,2.858l-0.365,2.517l-0.846,7.314l-1.373,2.721l0.605,4.387
	l-5.666,1.584l-9.861,4.527l-0.969,1.938l-2.588,1.941l-2.105,1.453l-1.293,0.809l-5.658,5.336l-2.748,2.104l-5.332,3.23
	l-5.658,2.426l-6.306,3.396l-1.776,1.455l-5.82,3.557l-3.395,0.646l-3.882,5.495l-4.041,0.323l-0.97,1.939l2.264,1.938l-1.455,5.496
	l-1.293,4.527l-1.132,3.879l-0.81,4.527l0.81,2.424l1.777,6.953l0.971,6.143l1.777,2.748l-0.97,1.455l-3.072,1.938l-5.657-3.88
	l-5.496-1.133l-1.293,0.486l-3.233-0.648l-4.202-3.068l-5.173-1.134l-7.599-3.396l-2.103-3.879l-1.294-6.467l-3.233-1.939
	l-0.646-2.264l0.646-0.646l0.323-3.395l-1.293-0.646l-0.646-0.971l1.293-4.365l-1.614-2.264l-3.233-1.293l-3.396-4.365l-3.558-6.627
	l-4.203-2.588l0.161-1.939l-5.334-12.283l-0.808-4.203l-1.778-1.941l-0.162-1.453l-5.98-5.336l-2.586-3.072v-1.131l-2.586-2.102
	l-6.79-1.131l-7.437-0.646l-3.072-2.264l-4.526,1.776l-3.557,1.454l-2.263,3.234l-0.97,3.717l-4.364,6.146l-2.425,2.424
	l-2.586-0.969l-1.778-1.135l-1.939-0.646l-3.88-2.265v-0.646l-1.778-1.938l-5.173-2.103l-7.437-7.76l-2.263-4.688v-8.084
	l-3.233-6.467l-0.484-2.748l-1.617-0.969l-1.132-2.104l-5.011-2.102l-1.293-1.617l-7.113-7.922l-1.293-3.232l-4.688-2.264
	l-1.455-4.365l-2.586-2.908l-1.939-0.484l-0.649-4.678l8.002,0.686l29.035,2.744l29.035,1.6l2.287-23.773l3.886-55.557l1.601-18.746
	l1.372,0.025 M458.23,560.961l-0.566-7.113l-2.748-7.191l-0.564-7.033l1.535-8.244l3.313-6.871l3.476-5.416l3.152-3.557l0.646,0.244
	l-4.771,6.627l-4.365,6.547l-2.021,6.629l-0.323,5.174l0.89,6.145l2.588,7.191l0.483,5.176l0.161,1.453L458.23,560.961z"/>
<path id="California" fill="#D3D3D3" d="M137.741,380.391l3.813-0.486l1.486-2.014l0.732-1.938l-3.177-0.092l-1.099-1.764
	l0.778-1.715l-0.047-6.148l2.219-1.328l2.697-2.584l0.411-4.914l1.646-3.498l1.943-2.104l3.269-1.715l1.279-0.729l0.756-1.484
	l-0.869-0.894l-0.96-1.511l-0.938-5.348l-2.903-5.236l0.097-2.786l-2.201-3.248l-14.999-23.229l-19.433-28.714l-22.427-33.034
	l-12.702-19.544l1.797-7.208l6.813-25.949l8.116-31.436l-12.366-3.337l-13.489-3.429L55.41,148.86l-7.544-2.058l-11.431-2.972
	l-7.051-2.412l-1.58,4.724l-0.162,7.437l-5.173,11.801l-3.071,2.586l-0.323,1.131l-1.778,0.811l-1.455,4.203l-0.809,3.233
	l2.748,4.203l1.617,4.203l1.131,3.557l-0.323,6.466l-1.778,3.072l-0.646,5.819l-0.97,3.718l1.778,3.88l2.748,4.526l2.264,4.85
	l1.293,4.042l-0.323,3.233l-0.323,0.485v2.102l5.658,6.305l-0.485,2.425l-0.646,2.263l-0.646,1.94l0.162,8.245l2.102,3.718
	l1.94,2.587l2.748,0.484l0.97,2.749l-1.132,3.557l-2.102,1.617h-1.131l-0.809,3.88l0.485,2.91l3.231,4.365l1.617,5.335l1.455,4.688
	l1.293,3.072l3.395,5.82l1.455,2.586l0.485,2.91l1.616,0.971v2.424l-0.808,1.941l-1.778,7.111l-0.485,1.939l2.425,2.748l4.203,0.484
	l4.527,1.777l3.879,2.104h2.91l2.91,3.07l2.586,4.85l1.131,2.264l3.88,2.104l4.85,0.809l1.455,2.104l0.647,3.23l-1.455,0.646
	l0.324,0.971l3.231,0.809l2.749,0.162l2.909,4.688l3.88,4.203l0.809,2.264l2.587,4.203l0.323,3.231v9.377l0.485,1.776l10.023,1.455
	l19.723,2.748L137.741,380.391z M49.794,330.674l1.293,1.537l-0.162,1.293l-3.233-0.08l-0.566-1.213l-0.646-1.455L49.794,330.674z
	 M51.733,330.674l1.213-0.646l3.556,2.102l3.072,1.213l-0.889,0.646l-4.527-0.242l-1.616-1.617L51.733,330.674z M72.426,350.479
	l1.778,2.346l0.809,0.971l1.536,0.564l0.565-1.455l-0.97-1.777l-2.667-2.021l-1.051,0.162V350.479z M70.971,359.127l1.778,3.152
	l1.212,1.938l-1.455,0.242l-1.293-1.211c0,0-0.728-1.455-0.728-1.859c0-0.402,0-2.184,0-2.184L70.971,359.127z"/>
<path id="Arizona" fill="#D3D3D3" d="M138.747,381.139l-2.627,2.158l-0.323,1.455l0.485,0.969l18.914,10.67l12.125,7.6l14.711,8.566
	l16.813,10.023l12.286,2.426l25.128,2.703l2.531-12.506l3.753-27.242l6.965-52.883l4.257-30.965l-24.597-3.68l-27.206-4.572
	l-33.429-6.317l-2.922,18.092l-0.458,0.457l-1.714,2.629l-2.515-0.113l-1.257-2.742l-2.743-0.345l-0.915-1.144h-0.914l-0.915,0.57
	l-1.941,1.028l-0.115,6.974l-0.229,1.715l-0.571,12.574l-1.486,2.172l-0.571,3.315l2.743,4.913l1.258,5.83l0.8,1.029l1.028,0.572
	l-0.114,2.284l-1.601,1.371l-3.43,1.716l-1.943,1.941l-1.486,3.658l-0.572,4.916l-2.858,2.744l-2.058,0.686l-0.114,5.83
	l-0.457,1.715l0.457,0.8l3.658,0.571l-0.572,2.744l-1.486,2.172L138.747,381.139z"/>
<path id="Nevada" fill="#D3D3D3" d="M141.658,171.21l20.979,4.511l9.716,1.943l9.259,1.829l6.615,1.633l-0.559,5.865l-3.543,17.329
	l-4.093,19.98l-1.943,9.719l-2.172,13.282l-3.154,16.415l-3.521,15.685l-1.968,10.181l-2.466,16.77l-0.457,1.102l-1.073,2.469
	l-1.873-0.113l-1.097-2.742l-2.743-0.506l-1.396-0.98l-2.038,0.32l-0.915,0.73l-1.301,1.352l-0.436,6.973l-0.55,1.715l-0.411,12.094
	l-1.322,1.715l-1.876-2.262l-14.52-22.748L113.37,276.43l-22.748-33.836L78.24,224.011l1.637-6.564l6.973-25.949l7.888-31.348
	l33.605,8.143l13.717,2.972"/>
<path id="Utah" fill="#D3D3D3" d="M253.971,302.946l-24.643-3.477l-26.564-4.893l-33.827-6.02l1.589-9.157l3.201-15.203
	l3.314-16.575l2.172-13.603l1.943-8.917l3.771-20.461l3.544-17.49l1.114-5.573l12.717,2.258l12.003,2.058l10.288,1.829l8.345,1.372
	l3.678,0.479l-1.485,10.63l-2.312,13.173l7.808,0.928l16.407,1.805l8.211,0.855l-2.131,21.969l-3.2,22.565l-3.753,27.826
	l-1.666,11.106L253.971,302.946z"/>
<path id="Colorado" fill="#D3D3D3" d="M379.621,250.435l1.439-21.282l-32.095-3.064l-24.463-2.7l-37.266-4.115l-20.69-2.515
	l-2.629,22.177l-3.201,22.405l-3.752,27.987l-1.506,11.107l-0.251,2.764l33.927,3.795l37.74,4.266l31.961,3.166l16.608,0.848"/>
<path id="NewMexico" fill="#D3D3D3" d="M283.724,424.684l-0.65-6.123l8.644,0.525l29.516,3.064l28.393,1.438l1.966-22.332
	l3.728-55.877l1.119-19.389l2.014,0.35l-0.015-11.076l-32.203-2.4l-36.938-4.429l-34.465-4.114l-4.2,30.758l-6.965,53.203
	l-3.752,26.922l-2.049,13.309l15.46,1.99l1.293-10.023l16.651,2.586L283.724,424.684z"/>
<path id="Oregon" fill="#D3D3D3" d="M141.306,170.324l4.298-17.9l4.665-17.879l1.051-4.229l2.354-5.623l-0.616-1.163l-2.515-0.046
	l-1.281-1.671l0.457-1.464l0.503-3.247l4.458-5.487l1.829-1.099l1.145-1.144l1.484-3.565l4.047-5.669l3.565-3.862l0.229-3.451
	l-3.269-2.469l-1.209-4.51l-13.238-3.744l-15.089-3.544l-15.433,0.114l-0.457-1.372l-5.487,2.058l-4.458-0.572l-2.4-1.6
	l-1.257,0.686l-4.687-0.229l-1.714-1.372l-5.258-2.058l-0.8,0.114l-4.344-1.486l-1.943,1.829l-6.172-0.343l-5.942-4.115l0.686-0.8
	l0.229-7.773l-2.286-3.887l-4.115-0.571l-0.686-2.515L65.294,54.2l-5.798,2.059l-2.264,6.466l-3.233,10.023l-3.233,6.467
	l-5.011,14.064l-6.467,13.579l-8.083,12.609l-1.939,2.91l-0.809,8.568l-1.293,5.979l2.708,3.528l6.729,2.251l11.592,3.293
	l7.865,2.539l12.414,3.634l13.328,3.59l13.168,3.565"/>
<path id="NorthDakota" fill="#D3D3D3" d="M472.305,121.307l-0.363-7.496l-1.988-7.316l-1.829-13.649l-0.457-9.831l-1.989-3.108
	l-1.601-5.351V64.268l0.686-3.887l-2.114-5.499l-28.425-0.563l-18.591-0.646l-26.512-1.293l-24.946-1.884l-1.261,14.23
	l-1.372,15.089l-2.259,24.948l-0.486,11.021l56.816,3.764L472.305,121.307z"/>
<path id="SouthDakota" fill="#D3D3D3" d="M473.797,196.819l-0.953-1.081l-1.521-3.627l1.829-3.702l1.051-5.555l-2.583-2.058
	l-0.297-2.743l0.594-2.997l2.149-0.802l0.298-5.735l-0.068-30.086l-0.618-2.972l-4.115-3.59l-0.98-1.989v-1.921l1.896-1.279
	l1.531-1.854l0.185-2.719l-57.384-1.601l-56.175-3.887l-0.767,5.279l-1.613,15.868l-1.345,17.947l-1.6,24.597l16.027,1.029
	l19.638,1.143l17.993,1.304l23.776,1.303l10.746-0.778l2.858,2.286l4.318,2.972l0.983,0.754l3.54-0.89l4.048-0.297l2.743-0.068
	l3.111,1.211l4.549,1.44l3.133,1.761l0.617,1.921l0.914,1.896l0.707-0.479L473.797,196.819z"/>
<path id="Nebraska" fill="#D3D3D3" d="M485.244,240.628l1.372,2.675l0.093,2.125l2.354,3.729l2.72,3.152h-5.05l-43.48-0.939
	l-40.787-0.89l-21.191-0.961l1.073-21.328l-33.379-2.744l4.344-44.01l15.546,1.029l20.119,1.143l17.833,1.144l23.775,1.143
	l10.745-0.457l2.058,2.286l4.803,2.972l1.144,0.915l4.344-1.372l3.888-0.458l2.742-0.229l1.829,1.372l5.03,1.6l2.973,1.6
	l0.456,1.601l0.915,2.058h1.828l0.799,0.046l0.982,5.212l2.743,8.026l1.233,4.641l2.127,3.818l0.524,4.938l1.438,4.276l0.551,6.469"
	/>
<path id="Iowa" fill="#D3D3D3" d="M567.593,195.267l0.17,1.942l2.287,1.14l1.141,1.257l0.344,1.262l3.887,3.202l0.686,2.173
	l-0.799,2.862l-1.484,3.544l-0.803,2.742l-2.174,1.602l-1.715,0.573l-5.484,1.485l-0.688,2.283l-0.799,2.284l0.572,1.372
	l1.717,1.714l-0.002,3.661l-2.17,1.601l-0.459,1.487v2.517l-1.488,0.457l-1.715,1.37l-0.455,1.485l0.455,1.717l-1.373,1.204
	l-2.295-2.691l-1.482-2.626l-8.342,0.799l-10.17,0.571l-25.037,0.688l-13.035,0.229l-9.374,0.229l-1.313,0.121l-1.655-4.472
	l-0.229-6.63l-1.602-4.115l-0.686-5.258l-2.286-3.658l-0.915-4.801l-2.743-7.544l-1.144-5.373l-1.371-2.172l-1.603-2.744
	l1.829-4.344l1.372-5.715l-2.743-2.058l-0.458-2.744l0.915-2.515h1.715h11.545l49.613-0.686l19.877-0.686l1.852,2.747l1.832,2.622
	l0.455,0.804l-1.83,2.749l0.455,4.222l2.516,3.887l2.969,1.824l2.404,0.23L567.593,195.267z"/>
<path id="Mississippi" fill="#D3D3D3" d="M625.558,460.608l-0.254,1.256h-5.174l-1.453-0.811l-2.102-0.32l-6.791,1.938l-1.777-0.809
	l-2.588,4.202l-1.105,0.778l-1.125-2.487l-1.143-3.888l-3.43-3.2l1.145-7.546l-0.686-0.913l-1.83,0.229l-8.23,0.686l-24.23,0.688
	l-0.457-1.601l0.686-8.003l3.43-6.172l5.258-9.146l-0.914-2.059h1.143l0.689-3.199l-2.287-1.828l0.229-1.83l-2.057-4.572
	l-0.287-5.344l1.373-2.658l-0.4-4.344l-1.373-2.975l1.373-1.369l-1.373-2.059l0.459-1.83l0.914-6.172l2.975-2.744l-0.689-2.057
	l3.658-5.26l2.744-0.914v-2.518l-0.688-1.37l2.742-5.259l2.744-1.143l0.107-3.412l8.676-0.078l24.088-1.938l4.58-0.229l0.008,6.371
	l0.162,16.649l-0.809,31.038l-0.162,14.064l2.748,18.754L625.558,460.608z"/>
<path id="Indiana" fill="#D3D3D3" d="M619.419,294.493l0.063-2.858l0.484-4.526l2.264-2.91l1.777-3.88l2.588-4.203l-0.486-5.819
	l-1.773-2.749l-0.324-3.233l0.809-5.497l-0.484-6.952l-1.293-16.004l-1.293-15.358l-0.971-11.72l3.07,0.89l1.455,0.97l1.131-0.323
	l2.102-1.94l2.83-1.617l5.094-0.162l21.984-2.264l5.576-0.533l1.504,15.957l4.252,36.841l0.598,5.771l-0.371,2.264l1.227,1.795
	l0.102,1.373l-2.521,1.602l-3.539,1.551l-3.203,0.551l-0.598,4.867l-4.574,3.313l-2.797,4.01l0.322,2.377l-0.58,1.534h-3.328
	l-1.584-1.617l-2.494,1.262l-2.684,1.503l0.162,3.055l-1.193,0.258l-0.469-1.018l-2.166-1.503l-3.25,1.341l-1.551,3.006
	l-1.439-0.808l-1.455-1.6l-4.463,0.484l-5.594,0.97L619.419,294.493z"/>
<path id="Illinois" fill="#D3D3D3" d="M618.804,295.239v-3.604l0.258-4.867l2.377-3.137l1.779-3.766l2.586-3.863l-0.371-5.252
	l-2.006-3.542l-0.096-3.347l0.695-5.271l-0.826-7.179l-1.066-15.777l-1.293-15.017l-0.922-11.639l-0.273-0.921l-0.809-2.586
	l-1.293-3.719l-1.617-1.778l-1.455-2.586l-0.232-5.489l-9.902,1.313l-27.207,1.714l-8.688-0.429l0.229,2.372l2.287,0.686
	l0.914,1.143l0.457,1.829l3.887,3.43l0.686,2.286l-0.686,3.429l-1.828,3.658l-0.688,2.515l-2.285,1.829l-1.83,0.688l-5.258,1.372
	l-0.686,1.829l-0.686,2.058l0.686,1.372l1.828,1.601l-0.229,4.115l-1.828,1.6l-0.689,1.6v2.744l-1.83,0.458l-1.6,1.143l-0.229,1.372
	l0.229,2.058l-1.715,1.314l-1.029,2.801l0.457,3.658l2.287,7.315l7.316,7.545l5.486,3.658l-0.229,4.344l0.914,1.372l6.398,0.457
	l2.742,1.372l-0.686,3.658l-2.285,5.944l-0.688,3.201l2.287,3.886l6.402,5.259l4.572,0.688l2.057,5.027l2.059,3.201l-0.916,2.971
	l1.602,4.115l1.828,2.061l1.945-0.793l0.686-2.162l2.037-1.438l3.236-1.102l3.088,1.18l2.877,1.066l0.791-0.209l-0.066-1.242
	l-1.066-2.767l0.439-2.377l2.281-1.567l2.357-0.986l1.162-0.42l-0.582-1.324l-0.76-2.168l1.246-1.262L618.804,295.239z"/>
<path id="Minnesota" fill="#D3D3D3" d="M472.879,122.109l-0.457-8.459l-1.829-7.316l-1.829-13.489l-0.457-9.831l-1.828-3.43
	l-1.602-5.029V64.268l0.686-3.887l-1.818-5.452l30.13,0.036l0.324-8.245l0.646-0.162l2.262,0.485l1.941,0.809l0.807,5.496
	l1.455,6.146l1.617,1.616h4.85l0.324,1.455l6.305,0.323v2.104h4.85l0.322-1.293l1.133-1.132l2.264-0.646l1.293,0.97h2.91
	l3.879,2.587l5.334,2.425l2.426,0.485l0.484-0.97l1.455-0.485l0.486,2.91l2.586,1.293l0.484-0.485l1.293,0.162v2.102l2.588,0.97
	h3.07l1.617-0.809l3.232-3.233l2.588-0.485l0.809,1.778l0.484,1.293h0.971l0.969-0.808l8.893-0.324l1.777,3.072h0.646l0.713-1.084
	l4.441-0.37l-0.613,2.279l-3.939,1.837l-9.244,4.061l-4.775,2.007l-3.07,2.586l-2.426,3.556l-2.264,3.88l-1.777,0.809l-4.527,5.012
	l-1.293,0.161l-3.842,2.934l-2.814,3.161l-0.23,2.97l0.229,7.778l-1.598,1.6l-5.26,4.114l-1.832,5.717l2.518,3.648l0.459,2.52
	l-1.145,2.974l-0.23,3.66l0.457,7.084l3.43,4.106h2.975l2.51,2.293l3.203,1.365l3.658,5.035l7.088,5.023l1.83,2.063l0.234,5.502
	l-20.588,0.686l-60.25,0.459l-0.34-35.677l-0.457-2.972l-4.113-3.429l-1.145-1.829v-1.601l2.059-1.6l1.372-1.372L472.879,122.109z"
	/>
<path id="Wisconsin" fill="#D3D3D3" d="M613.941,190.819l0.371-2.97l-1.617-4.526l-0.646-6.146l-1.131-2.425l0.969-3.071l0.813-2.91
	l1.451-2.586l-0.645-3.395l-0.646-3.557l0.484-1.778l1.939-2.425l0.162-2.748l-0.811-1.293l0.646-2.586l0.484-3.233l2.748-5.658
	l2.91-6.79l0.16-2.263l-0.322-0.97l-0.809,0.485l-4.203,6.305l-2.748,4.042l-1.939,1.778l-0.809,2.263l-1.455,0.808l-1.131,1.94
	l-1.455-0.324l-0.162-1.778l1.293-2.425l2.102-4.688l1.777-1.617l1.102-2.292l-1.631-0.905l-1.371-1.372l-1.6-10.288l-3.658-1.143
	l-1.373-2.286l-12.572-2.744l-2.516-1.143l-8.229-2.286l-8.23-1.144l-4.17-5.404l-0.527,1.261l-1.133-0.162l-0.645-1.131
	l-2.748-0.81l-1.133,0.162l-1.777,0.97l-0.971-0.646l0.645-1.94l1.939-3.071l1.133-1.132l-1.938-1.455l-2.105,0.809l-2.91,1.94
	l-7.438,3.233l-2.91,0.647l-2.91-0.485l-0.979-0.878l-2.117,2.835l-0.23,2.743v8.459l-1.143,1.601l-5.26,3.887l-2.285,5.944
	l0.457,0.229l2.516,2.058l0.689,3.201l-1.83,3.201v3.886l0.457,6.63l2.973,2.972h3.43l1.828,3.201l3.43,0.457l3.887,5.716
	l7.088,4.115l2.057,2.744l0.916,7.43l0.689,3.315l2.285,1.601l0.229,1.372l-2.057,3.429l0.229,3.201l2.516,3.886l2.514,1.143
	l2.973,0.458l1.344,1.38h9.176l26.063-1.487L613.941,190.819z"/>
<path id="path57" fill="#D3D3D3" d="M556.789,243.166l-2.52-3.087l-1.145-2.286l-7.771,0.686l-9.832,0.458l-25.377,0.914
	l-13.488,0.229l-7.886,0.114l-2.287,0.115l1.259,2.515l-0.229,2.286l2.516,3.887l3.087,4.115l3.086,2.744l2.285,0.229l1.371,0.915
	v2.972l-1.828,1.602l-0.457,2.286l2.059,3.429l2.514,2.973l2.518,1.829l1.371,11.66l-0.688,35.322l0.23,4.688l0.457,5.383
	l23.434-0.115l23.205-0.688l20.805-0.801l11.656-0.23l2.168,3.428l-0.684,3.309l-3.09,2.402l-0.57,1.838l5.379,0.457l3.895-0.688
	l1.717-5.494l0.652-5.855l2.318-2.023l1.713-1.487l2.057-1.028l0.115-2.859l0.574-1.717l-1.031-1.748l-2.744,0.146l-2.17-2.625
	l-1.373-4.229l0.801-2.518l-1.943-3.429l-1.832-4.576l-4.799-0.799l-6.969-5.6l-1.719-4.113l0.799-3.201l2.059-6.058l0.459-2.864
	l-1.949-1.031l-6.854-0.798l-1.029-1.712l-0.111-4.229l-5.484-3.431l-6.979-7.771l-2.285-7.316l-0.229-4.225L556.789,243.166z"/>
<path id="Arkansas" fill="#D3D3D3" d="M591.953,338.592l-3.848,0.938l-6.174-0.457l0.688-2.975l3.199-2.743l0.457-2.284
	l-1.828-2.975l-10.975,0.457l-20.805,0.914l-23.318,0.688l-23.32,0.457l1.602,6.855v8.23l1.371,10.975l0.229,37.836l2.287,1.943
	l2.971-1.371l2.744,1.143l0.434,10.324l22.887-0.143l18.863-0.801l10.121-0.197l1.145-2.09l-0.287-3.551l-1.826-2.973l1.602-1.484
	l-1.602-2.514l0.688-2.51l1.367-5.604l2.52-2.063l-0.688-2.285l3.656-5.371l2.744-1.367l-0.111-1.493l-0.348-1.825l2.857-5.6
	l2.4-1.258l0.387-3.428l1.77-1.242l0.857-4.233l-1.342-4.011l4.041-2.377l0.551-2.02l1.236-4.27L591.953,338.592z"/>
<path id="Oklahoma" fill="#D3D3D3" d="M376.343,316.209l-10.688-0.457l-6.43-0.486l0.257,0.201l-0.704,10.422l21.965,1.406
	L412.8,328.6l-2.335,24.418l-0.457,17.832l0.229,1.604l4.344,3.658l2.058,1.143l0.688-0.229l0.686-2.06l1.371,1.83h2.06v-1.373
	l2.744,1.373l-0.459,3.887l4.114,0.229l2.517,1.143l4.114,0.688l2.517,1.83l2.285-2.061l3.431,0.688l2.515,3.43h0.915v2.287
	l2.285,0.686l2.287-2.287l1.828,0.688h2.516l0.914,2.516l4.802,1.828l1.371-0.686l1.829-4.115h1.145l1.144,2.059l4.115,0.688
	l3.658,1.371l2.972,0.914l1.829-0.914l0.686-2.514h4.346l2.058,0.912l2.744-2.059h1.143l0.688,1.602h4.114l1.604-2.059l1.828,0.457
	l2.059,2.516l3.201,1.828l3.199,0.916l1.939,1.119l-0.389-37.219l-1.371-10.975l-0.162-8.873l-1.438-6.535l-0.777-7.182
	l-0.068-3.814l-12.137,0.316l-46.41-0.457l-45.039-2.059L376.343,316.209z"/>
<path id="Kansas" fill="#D3D3D3" d="M504.38,318.768l-12.619,0.205l-46.087-0.457l-44.559-2.059l-24.629-1.256l4.144-64.721
	l21.833,0.8l40.467,1.372l44.124,0.458h5.096l3.246,3.225l2.768,0.229l0.891,1.075v2.009l-1.83,1.601l-0.457,2.607l2.223,3.59
	l2.516,3.133l2.514,1.989l1.051,11.178L504.38,318.768z"/>
<path id="Louisiana" fill="#D3D3D3" d="M603.203,466.633l-1.029-2.617l-1.145-3.092l-3.314-3.541l0.916-6.75l-0.119-1.141
	l-1.262,0.342l-8.23,0.912l-25.023,0.459l-0.689-2.395l0.914-8.455l3.314-5.947l5.031-8.689l-0.574-2.396l1.258-0.684l0.459-1.951
	l-2.287-2.057l-0.111-1.943l-1.83-4.346l-0.457-5.938l-9.725,0.111l-19.205,0.914l-22.205,0.029l0.029,9.572l0.686,9.375
	l0.689,3.887l2.516,4.115l0.914,5.029l4.344,5.484l0.229,3.201l0.686,0.688l-0.686,8.459l-2.973,5.027l1.602,2.061l-0.686,2.514
	l-0.686,7.316l-1.373,3.199l0.123,3.615l4.686-1.521l8.084-0.32l10.346,3.557l6.467,1.131l3.719-1.453l3.232,1.131l3.232,0.971
	l0.809-2.102l-3.232-1.133l-2.586,0.484l-2.748-1.617c0,0,0.16-1.293,0.811-1.455c0.645-0.162,3.068-0.969,3.068-0.969l1.777,1.455
	l1.779-0.971l3.232,0.646l1.455,2.426l0.324,2.264l4.525,0.322l1.775,1.777l-0.809,1.617l-1.293,0.809l1.617,1.617l8.406,3.558
	l3.557-1.296l0.969-2.424l2.586-0.646l1.779-1.455l1.293,0.969l0.809,2.91l-2.264,0.809l0.646,0.646l3.395-1.293l2.264-3.396
	l0.813-0.482l-2.105-0.324l0.811-1.617l-0.16-1.455l2.102-0.482l1.131-1.293l0.648,0.809c0,0-0.162,3.07,0.645,3.07
	c0.809,0,4.203,0.646,4.203,0.646l4.041,1.939l0.973,1.453h2.906l1.135,0.971l2.264-3.07v-1.455h-1.295l-3.396-2.748l-5.814-0.809
	l-3.234-2.266l1.133-2.746l2.262,0.32l0.162-0.646l-1.777-0.97v-0.485h3.232l1.779-3.07l-1.295-1.938l-0.322-2.75l-1.455,0.162
	l-1.939,2.102l-0.646,2.588l-3.072-0.647l-0.971-1.776l1.779-1.938l2.02-1.778L603.203,466.633z"/>
<path id="Virginia" fill="#D3D3D3" d="M829.906,262.884l-0.143-1.947l6.453-2.55l-0.771,3.218l-2.92,3.779l-0.418,4.586l0.463,3.391
	l-1.828,4.978l-2.164,1.916l-1.471-4.641l0.445-5.449l1.588-4.183L829.906,262.884z M832.185,291.186l-58.174,12.575l-37.426,5.279
	l-6.68-0.375l-2.584,1.926l-7.344,0.222l-8.383,0.979l-8.926,0.951l8.48-4.947l-0.012-2.076l1.52-2.146l10.553-11.501l3.947,4.477
	l3.783,0.966l2.543-1.142l2.238-1.312l2.537,1.344l3.914-1.43l1.875-4.556l2.602,0.54l2.855-2.131l1.799,0.494l2.828-3.677
	l0.348-2.083l-0.963-1.275l1.002-1.867l5.275-12.277l0.615-5.735l1.229-0.524l2.18,2.443l3.936-0.301l1.93-7.574l2.793-0.561
	l1.055-2.741l2.576-2.347l1.271-2.342l1.504-3.353l0.084-5.067l9.822,3.823c0.682,0.34,0.656-4.784,0.656-4.784l4.051,1.377
	l-0.463,2.629l8.152,2.939l1.293,1.794l-0.863,3.682l-1.268,1.326l-0.506,1.746l0.494,2.402l1.959,1.278l3.918,1.445l2.949,0.968
	l4.855,0.942l2.152,2.088l3.189,0.403l0.865,1.2l-0.438,4.69l1.375,1.103l-0.48,1.931l1.23,0.79l-0.223,1.385L819,275.105
	l0.09,1.616l2.281,1.543l0.121,1.412l1.771,1.786l0.49,2.524l-2.553,1.382l1.57,1.494l5.803-1.687L832.185,291.186z"/>
<path id="Columbia" fill="#D3D3D3" d="M802.757,247.482l-1.078-1.636l-1.014-0.843l1.1-1.616l2.232,1.511L802.757,247.482z"/>
<g id="text950" transform="matrix(1.0202629,0,0,0.99761093,-11.755571,-143.31164)">
	<path id="path3994" fill-opacity="0.75" d="M109.974,634.367l3.574-9.305h1.327l3.809,9.305h-1.403l-1.085-2.817h-3.891
		l-1.022,2.817H109.974z M112.659,630.546h3.155l-0.971-2.576c-0.296-0.783-0.516-1.425-0.66-1.93
		c-0.119,0.597-0.286,1.19-0.502,1.78L112.659,630.546z"/>
	<path id="path3996" fill-opacity="0.75" d="M119.508,634.367v-9.305h1.142v9.305H119.508z"/>
	<path id="path3998" fill-opacity="0.75" d="M126.827,633.537c-0.423,0.358-0.83,0.613-1.222,0.762
		c-0.391,0.149-0.811,0.221-1.26,0.221c-0.74,0-1.309-0.18-1.708-0.541c-0.398-0.361-0.596-0.823-0.596-1.387
		c0-0.33,0.075-0.63,0.225-0.904c0.15-0.272,0.347-0.49,0.591-0.656c0.243-0.163,0.517-0.29,0.822-0.374
		c0.224-0.061,0.563-0.117,1.016-0.172c0.923-0.11,1.601-0.241,2.038-0.394c0.004-0.159,0.006-0.256,0.006-0.299
		c0-0.466-0.108-0.795-0.324-0.985c-0.292-0.257-0.726-0.388-1.302-0.388c-0.537,0-0.934,0.094-1.19,0.284
		c-0.257,0.188-0.446,0.521-0.57,0.997l-1.117-0.153c0.101-0.478,0.269-0.863,0.503-1.157c0.233-0.296,0.569-0.521,1.009-0.679
		c0.44-0.159,0.95-0.239,1.53-0.239c0.576,0,1.043,0.07,1.403,0.206c0.36,0.135,0.624,0.303,0.793,0.511
		c0.169,0.206,0.288,0.464,0.356,0.775c0.038,0.198,0.057,0.546,0.057,1.053v1.523c0,1.063,0.024,1.735,0.073,2.017
		c0.048,0.283,0.145,0.55,0.289,0.811h-1.193C126.936,634.13,126.86,633.854,126.827,633.537L126.827,633.537z M126.732,630.984
		c-0.415,0.17-1.037,0.313-1.866,0.433c-0.47,0.069-0.802,0.143-0.996,0.227c-0.195,0.086-0.345,0.209-0.451,0.372
		c-0.106,0.162-0.159,0.346-0.159,0.542c0,0.304,0.115,0.56,0.346,0.762c0.231,0.206,0.568,0.305,1.012,0.305
		c0.44,0,0.832-0.096,1.173-0.29c0.344-0.193,0.594-0.456,0.755-0.789c0.123-0.258,0.185-0.64,0.185-1.143V630.984z"/>
	<path id="path4000" fill-opacity="0.75" d="M129.207,632.355l1.13-0.176c0.064,0.452,0.24,0.799,0.53,1.04
		c0.29,0.243,0.695,0.362,1.216,0.362c0.525,0,0.914-0.106,1.168-0.321c0.254-0.213,0.38-0.464,0.38-0.752
		c0-0.258-0.112-0.46-0.336-0.609c-0.157-0.104-0.546-0.231-1.168-0.39c-0.838-0.209-1.419-0.393-1.743-0.546
		c-0.324-0.157-0.569-0.368-0.736-0.642c-0.167-0.272-0.251-0.576-0.251-0.904c0-0.3,0.069-0.578,0.206-0.834
		c0.137-0.255,0.325-0.468,0.562-0.638c0.178-0.129,0.42-0.243,0.727-0.333c0.306-0.092,0.636-0.137,0.987-0.137
		c0.529,0,0.994,0.076,1.394,0.229s0.695,0.358,0.885,0.619c0.19,0.261,0.322,0.611,0.391,1.044l-1.117,0.153
		c-0.051-0.346-0.198-0.617-0.44-0.813c-0.243-0.194-0.588-0.292-1.032-0.292c-0.525,0-0.899,0.084-1.123,0.258
		c-0.224,0.174-0.336,0.376-0.336,0.609c0,0.15,0.046,0.282,0.14,0.399c0.093,0.122,0.239,0.225,0.438,0.304
		c0.114,0.042,0.45,0.139,1.009,0.293c0.808,0.213,1.372,0.393,1.691,0.531c0.32,0.137,0.57,0.337,0.752,0.599
		c0.182,0.262,0.273,0.589,0.273,0.979c0,0.38-0.111,0.738-0.333,1.075c-0.222,0.339-0.543,0.597-0.962,0.781
		c-0.419,0.184-0.893,0.276-1.421,0.276c-0.876,0-1.544-0.182-2.003-0.546C129.627,633.61,129.334,633.071,129.207,632.355z"/>
	<path id="path4002" fill-opacity="0.75" d="M136.171,634.367v-9.305h1.143v5.31l2.704-2.743h1.479l-2.577,2.5l2.838,4.241h-1.409
		l-2.228-3.446l-0.806,0.771v2.672H136.171L136.171,634.367z"/>
	<path id="path4004" fill-opacity="0.75" d="M147.063,633.537c-0.423,0.358-0.831,0.613-1.222,0.762s-0.811,0.221-1.26,0.221
		c-0.741,0-1.309-0.18-1.708-0.541c-0.398-0.361-0.596-0.823-0.596-1.387c0-0.33,0.075-0.63,0.225-0.904
		c0.15-0.272,0.347-0.49,0.592-0.656c0.243-0.163,0.517-0.29,0.822-0.374c0.224-0.061,0.563-0.117,1.016-0.172
		c0.922-0.11,1.601-0.241,2.037-0.394c0.004-0.159,0.006-0.256,0.006-0.299c0-0.466-0.108-0.795-0.324-0.985
		c-0.292-0.257-0.726-0.388-1.301-0.388c-0.537,0-0.934,0.094-1.19,0.284c-0.257,0.188-0.446,0.521-0.569,0.997l-1.117-0.153
		c0.101-0.478,0.269-0.863,0.502-1.157c0.235-0.296,0.57-0.521,1.009-0.679c0.44-0.159,0.95-0.239,1.53-0.239
		c0.576,0,1.043,0.07,1.403,0.206c0.36,0.135,0.624,0.303,0.793,0.511c0.169,0.206,0.288,0.464,0.356,0.775
		c0.038,0.198,0.057,0.546,0.057,1.053v1.523c0,1.063,0.024,1.735,0.073,2.017c0.048,0.283,0.145,0.55,0.289,0.811h-1.194
		C147.172,634.13,147.097,633.854,147.063,633.537L147.063,633.537z M146.968,630.984c-0.415,0.17-1.037,0.313-1.866,0.433
		c-0.47,0.069-0.802,0.143-0.996,0.227c-0.195,0.086-0.346,0.209-0.451,0.372c-0.106,0.162-0.159,0.346-0.159,0.542
		c0,0.304,0.115,0.56,0.346,0.762c0.231,0.206,0.568,0.305,1.012,0.305c0.44,0,0.832-0.096,1.174-0.29
		c0.343-0.193,0.594-0.456,0.755-0.789c0.123-0.258,0.184-0.64,0.184-1.143L146.968,630.984L146.968,630.984z"/>
</g>
<g id="text953" transform="matrix(1.0202629,0,0,0.99761093,-11.755571,-143.31164)">
	<path id="path4007" fill-opacity="0.75" d="M264.538,688.871v-9.305h1.231v3.82h4.839v-3.82h1.232v9.305h-1.232v-4.387h-4.839
		v4.387H264.538z"/>
	<path id="path4009" fill-opacity="0.75" d="M278.148,688.039c-0.423,0.36-0.831,0.613-1.222,0.762
		c-0.391,0.149-0.811,0.223-1.26,0.223c-0.741,0-1.31-0.182-1.708-0.544c-0.398-0.36-0.597-0.824-0.597-1.386
		c0-0.331,0.075-0.63,0.225-0.905c0.15-0.274,0.347-0.491,0.591-0.658c0.243-0.164,0.517-0.292,0.822-0.374
		c0.224-0.061,0.563-0.117,1.017-0.172c0.922-0.11,1.602-0.241,2.037-0.393c0.004-0.155,0.006-0.255,0.006-0.298
		c0-0.466-0.108-0.793-0.324-0.983c-0.292-0.258-0.727-0.388-1.301-0.388c-0.538,0-0.934,0.094-1.19,0.282
		c-0.256,0.188-0.446,0.521-0.568,0.998l-1.117-0.153c0.101-0.48,0.268-0.865,0.501-1.159c0.235-0.296,0.57-0.521,1.009-0.679
		c0.44-0.159,0.95-0.237,1.53-0.237c0.576,0,1.043,0.069,1.403,0.202c0.36,0.137,0.624,0.307,0.793,0.511
		c0.169,0.208,0.288,0.468,0.355,0.779c0.038,0.194,0.057,0.544,0.057,1.053v1.523c0,1.059,0.024,1.735,0.073,2.015
		c0.049,0.282,0.145,0.552,0.289,0.812h-1.194C278.258,688.634,278.182,688.356,278.148,688.039L278.148,688.039z M278.053,685.488
		c-0.414,0.166-1.037,0.311-1.866,0.431c-0.469,0.068-0.802,0.145-0.996,0.229c-0.195,0.084-0.345,0.208-0.451,0.37
		c-0.106,0.164-0.158,0.345-0.158,0.544c0,0.302,0.115,0.558,0.346,0.762c0.231,0.204,0.569,0.303,1.013,0.303
		c0.44,0,0.832-0.096,1.174-0.29c0.343-0.192,0.594-0.454,0.755-0.791c0.123-0.256,0.184-0.636,0.184-1.139L278.053,685.488
		L278.053,685.488z"/>
	<path id="path4011" fill-opacity="0.75" d="M282.23,688.871l-2.063-6.745h1.18l1.073,3.892l0.4,1.447
		c0.016-0.07,0.133-0.534,0.349-1.388l1.073-3.951h1.174l1.009,3.914l0.336,1.288l0.387-1.304l1.155-3.898h1.11l-2.108,6.745h-1.187
		l-1.073-4.037l-0.26-1.149l-1.364,5.186H282.23L282.23,688.871z"/>
	<path id="path4013" fill-opacity="0.75" d="M294.78,688.039c-0.423,0.36-0.831,0.613-1.222,0.762
		c-0.391,0.149-0.811,0.223-1.26,0.223c-0.741,0-1.31-0.182-1.708-0.544c-0.398-0.36-0.597-0.824-0.597-1.386
		c0-0.331,0.077-0.63,0.225-0.905c0.15-0.274,0.347-0.491,0.592-0.658c0.243-0.164,0.517-0.292,0.822-0.374
		c0.224-0.061,0.563-0.117,1.016-0.172c0.923-0.11,1.602-0.241,2.037-0.393c0.004-0.155,0.007-0.255,0.007-0.298
		c0-0.466-0.108-0.793-0.324-0.983c-0.292-0.258-0.726-0.388-1.301-0.388c-0.537,0-0.934,0.094-1.19,0.282
		c-0.256,0.188-0.446,0.521-0.568,0.998l-1.117-0.153c0.101-0.48,0.268-0.865,0.502-1.159c0.233-0.296,0.569-0.521,1.009-0.679
		c0.44-0.159,0.95-0.237,1.53-0.237c0.576,0,1.043,0.069,1.403,0.202c0.36,0.137,0.624,0.307,0.794,0.511
		c0.169,0.208,0.288,0.468,0.355,0.779c0.038,0.194,0.057,0.544,0.057,1.053v1.523c0,1.059,0.024,1.735,0.073,2.015
		c0.049,0.282,0.146,0.552,0.289,0.812h-1.194C294.888,688.634,294.813,688.356,294.78,688.039L294.78,688.039z M294.684,685.488
		c-0.414,0.166-1.037,0.311-1.866,0.431c-0.47,0.068-0.802,0.145-0.997,0.229c-0.195,0.084-0.345,0.208-0.451,0.37
		c-0.106,0.164-0.158,0.345-0.158,0.544c0,0.302,0.115,0.558,0.346,0.762c0.233,0.204,0.57,0.303,1.015,0.303
		c0.438,0,0.832-0.096,1.173-0.29c0.343-0.192,0.594-0.454,0.755-0.791c0.122-0.256,0.184-0.636,0.184-1.139V685.488z"/>
	<path id="path4015" fill-opacity="0.75" d="M297.623,680.879v-1.314h1.142v1.314H297.623z M297.623,688.871v-6.745h1.142v6.745
		H297.623z"/>
	<path id="path4017" fill-opacity="0.75" d="M300.517,680.879v-1.314h1.142v1.314H300.517z M300.517,688.871v-6.745h1.142v6.745
		H300.517z"/>
</g>
<path id="path4917" fill="none" stroke="#A9A9A9" stroke-width="2" d="M211.996,486.64v55l36,45 M0.996,418.64h144l67,68h86l53,54
	v46"/>

<svg id="Pacific">
<text transform="matrix(1 0 0 1 102.5366 34.1514)" font-family="'Verdana'" font-size="13">Seattle</text>
<circle id="Seattle, WA~47.45~122.30" fill="#0000FF" cx="100.492" cy="15.938" r="6.12"/>
<circle id="Portland,OR~45.60~122.60" fill="#0000FF" cx="73.492" cy="74.938" r="6.12"/>
<text transform="matrix(1 0 0 1 77.5366 92.6514)" font-family="'Verdana'" font-size="13">Portland</text>
<circle id="San Francisco,CA~37.75~122.68" fill="#0000FF" cx="32.992" cy="238.438" r="6.12"/>
<text transform="matrix(1 0 0 1 40.5366 248.6514)" font-family="'Verdana'" font-size="13">San Francisco</text>
<circle id="Los Angeles, CA~33.93~118.40" fill="#0000FF" cx="83.992" cy="339.438" r="6.12"/>
<text transform="matrix(1 0 0 1 91.0366 333.6514)" font-family="'Verdana'" font-size="13">Los Angeles</text>
<circle id="San Diego, CA~32.73~117.17" fill="#0000FF" cx="99.492" cy="370.938" r="6.12"/>
<text transform="matrix(1 0 0 1 35.5366 390.6514)" font-family="'Verdana'" font-size="13">San Diego</text>
<text transform="matrix(1 0 0 1 145.5366 290.1514)" font-family="'Verdana'" font-size="13">Las Vegas</text>
<circle id="Las Vegas,NV~36.08~115.17" fill="#0000FF" cx="145.551" cy="300.719" r="6.12"/>
</svg>

<svg id="Mountain">
<circle id="Phoenix, AZ~33.43~112.02" fill="#0000FF" cx="188.771" cy="378.999" r="6.12"/>
<text transform="matrix(1 0 0 1 185.5366 397.1514)" font-family="'Verdana'" font-size="13">Phoenix</text>
<text transform="matrix(1 0 0 1 295.0366 274.1514)" font-family="'Verdana'" font-size="13">Denver</text>
<text transform="matrix(1 0 0 1 121.5366 204.6514)" font-family="'Verdana'" font-size="13">Salt Lake City</text>
<circle id="Albuquerque, NM~35.05~106.60" fill="#0000FF" cx="293.992" cy="344.438" r="6.12"/>
<circle id="Salt Lake City,UT~40.78~111.97" fill="#0000FF" cx="217.492" cy="215.938" r="6.12"/>
<circle id="Denver, CO~39.75~104.87" fill="#0000FF" cx="320.271" cy="256.438" r="6.12"/>
<text transform="matrix(1 0 0 1 263.0366 332.6514)" font-family="'Verdana'" font-size="13">Albuquerque</text>
</svg>


<svg id="Central">
<circle id="Dallas, TX~32.77~96.80" fill="#0000FF" cx="479.491" cy="410.438" r="6.12"/>
<circle id="Fort Worth, TX~32.75~97.33" fill="#0000FF" cx="467.271" cy="410.438" r="6.12"/>
<circle id="Houston, TX~29.76~95.38" fill="#0000FF" cx="500.491" cy="475.939" r="6.121"/>
<circle id="Austin, TX~30.25~97.75" fill="#0000FF" cx="452.991" cy="465.438" r="6.12"/>
<circle id="San Antonio, TX~29.41~98.5" fill="#0000FF" cx="440.991" cy="483.438" r="6.12"/>
<circle id="New Orleans, LA~29.96~90.05" fill="#0000FF" cx="594.491" cy="477.939" r="6.121"/>
<circle id="Chicago, IL~41.88~87.63" fill="#0000FF" cx="611.991" cy="204.439" r="6.121"/>
<text transform="matrix(1 0 0 1 383.0366 413.6514)" font-family="'Verdana'" font-size="13">Fort Worth</text>
<text transform="matrix(1 0 0 1 488.5366 413.1514)" font-family="'Verdana'" font-size="13">Dallas</text>
<text transform="matrix(1 0 0 1 564.0371 497.1514)" font-family="'Verdana'" font-size="13">New Orleans</text>
<text transform="matrix(1 0 0 1 405.5366 456.6514)" font-family="'Verdana'" font-size="13">Austin</text>
<text transform="matrix(1 0 0 1 411.0366 280.6514)" font-family="'Verdana'" font-size="13">Kansas City</text>
<text transform="matrix(1 0 0 1 483.5366 496.1514)" font-family="'Verdana'" font-size="13">Houston</text>
<text transform="matrix(1 0 0 1 549.0371 301.6514)" font-family="'Verdana'" font-size="13">St Louis</text>
<text transform="matrix(1 0 0 1 426.5366 145.1514)" font-family="'Verdana'" font-size="13">Minneapolis</text>
<text transform="matrix(1 0 0 1 576.5371 223.6514)" font-family="'Verdana'" font-size="13">Chicago</text>
<circle id="St. Louis, MO~38.63~90.20" fill="#0000FF" cx="574.991" cy="281.939" r="6.121"/>
<circle id="Kansas City, MO~39.32~94.72" fill="#0000FF" cx="502.771" cy="274.939" r="6.121"/>
<circle id="Minneapolis, MN~44.98~93.27" fill="#0000FF" cx="519.491" cy="142.939" r="6.121"/>
<text transform="matrix(1 0 0 1 398.0366 503.6514)" font-family="'Verdana'" font-size="13">San Antonio</text>
<circle id="Nashville, TN~36.17~86.78" fill="#0000FF" cx="645.991" cy="331.439" r="6.121"/>
<text transform="matrix(1 0 0 1 616.5371 350.1514)" font-family="'Verdana'" font-size="13">Nashville</text>
</svg>


<svg id="Eastern">
<text transform="matrix(1 0 0 1 769.0371 478.6514)" font-family="'Verdana'" font-size="13">Orlando</text>
<text transform="matrix(1 0 0 1 641.0371 387.6514)" font-family="'Verdana'" font-size="13">Atlanta</text>
<text transform="matrix(1 0 0 1 802.0371 543.6514)" font-family="'Verdana'" font-size="13">Miami</text>
<circle id="Miami, FL~25.79~80.22" fill="#0000FF" cx="791.491" cy="539.939" r="6.121"/>
<circle id="Orlando, FL~28.42~81.30" fill="#0000FF" cx="763.991" cy="486.939" r="6.121"/>
<circle id="Atlanta, GA~33.75~84.39" fill="#0000FF" cx="693.991" cy="371.939" r="6.121"/>
<circle id="Cleveland, OH~41.48~81.67" fill="#0000FF" cx="712.991" cy="209.939" r="6.121"/>
<circle id="Cincinnati, OH~39.10~84.52" fill="#0000FF" cx="679.991" cy="256.439" r="6.121"/>
<text transform="matrix(1 0 0 1 769.5361 332.1514)" font-family="'Verdana'" font-size="13">Charlotte</text>
<text transform="matrix(1 0 0 1 803.5361 268.1514)" font-family="'Verdana'" font-size="13">Washington DC</text>
<text transform="matrix(1 0 0 1 852.5361 209.1514)" font-family="'Verdana'" font-size="13">New York City</text>
<text transform="matrix(1 0 0 1 833.5361 227.1514)" font-family="'Verdana'" font-size="13">Philadelphia</text>
<text transform="matrix(1 0 0 1 891.5361 145.6514)" font-family="'Verdana'" font-size="13">Boston</text>
<circle id="Washington DC~38.90~77.04" fill="#0000FF" cx="795.991" cy="253.939" r="6.121"/>
<circle id="Philadelphia, PA~39.95~75.17" fill="#0000FF" cx="825.991" cy="213.439" r="6.121"/>
<circle id="New York, NY~40.71~74.01" fill="#0000FF" cx="845.081" cy="189.998" r="6.121"/>
<circle id="Boston, MA~42.36~71.06" fill="#0000FF" cx="881.081" cy="149.998" r="6.121"/>
<circle id="Charlotte, NC~35.23~80.84" fill="#0000FF" cx="758.991" cy="336.939" r="6.121"/>
<text transform="matrix(1 0 0 1 718.0361 198.1514)" font-family="'Verdana'" font-size="13">Cleveland</text>
<text transform="matrix(1 0 0 1 679.0361 277.1514)" font-family="'Verdana'" font-size="13">Cincinnati</text>
<circle id="Detroit, MI~42.33~83.05" fill="#0000FF" cx="683.491" cy="186.939" r="6.121"/>
<text transform="matrix(1 0 0 1 641.5371 175.6514)" font-family="'Verdana'" font-size="13">Detroit</text>
</svg>

<style>
	circle:hover
	{
		cursor: pointer;
	}
</style>

</svg>
